<?xml version="1.0" encoding="UTF-8" standalone="no"?>
<!DOCTYPE svg PUBLIC "-//W3C//DTD SVG 1.1//EN" "http://www.w3.org/Graphics/SVG/1.1/DTD/svg11.dtd">
<svg width="100%" height="100%" viewBox="0 0 1280 640" version="1.1" xmlns="http://www.w3.org/2000/svg" xmlns:xlink="http://www.w3.org/1999/xlink" xml:space="preserve" xmlns:serif="http://www.serif.com/" style="fill-rule:evenodd;clip-rule:evenodd;stroke-linejoin:round;stroke-miterlimit:2;">
    <rect x="0" y="0" width="1280" height="640" style="fill:url(#_Linear1);"/>
    <path d="M1280,4.088l-53.635,30.966l0.003,9.898c0.106,5.46 0.119,26.585 -0.056,47.057l-0.06,37.159l41.418,24.254l12.33,7.17l0,6.538c-5.596,-3.254 -11.858,-6.88 -18.349,-10.614l-37.808,-21.959l-40.228,22.654l-40.309,22.512l-0.069,44.398c-0.014,24.377 -0.04,46.095 -0.05,48.386c0.138,3.537 4.836,6.727 41.106,27.67l41.028,23.908l40.084,-22.571l14.595,-8.151l0,7.72l-50.113,28.933l-0.161,46.546c-0.09,25.564 0.334,47.403 0.994,48.545c0.719,0.917 18.97,12.084 40.704,24.666l8.576,4.936l0,6.869c-3.955,-2.368 -8.165,-4.865 -12.524,-7.431l-40.27,-23.585l-40.98,23.66c-40.979,23.66 -41.122,23.742 -41.307,28.038c-0.071,2.515 -0.202,23.723 -0.26,47.364c-0.196,38.57 0.212,42.904 3.348,44.71c1.907,0.994 20.729,11.831 41.622,23.946l38.198,22.305l52.173,-30.122l0,5.712l-9.148,5.282l-40.041,23.308l-0.021,15.235l-5.512,-0c-0.155,-7.495 -0.363,-12.258 -0.591,-12.652c-0.577,-0.999 -19.135,-12.369 -41.259,-25.297l-40.352,-23.727l-40.979,23.659l-40.92,23.435l-0.078,14.582l-6.093,0c0.015,-3.083 0.021,-5.329 0.011,-6.457l0.047,-7.832l-40.803,-23.848l-40.945,-23.765l-40.941,23.066l-41.002,23.292l-0.058,15.544l-6.286,-0l0.066,-15.537l-40.968,-24.133l-41.028,-23.908l-81.673,47.155l-0.028,16.423l-6.124,0l0.098,-16.356l-41.11,-24.05l-41.028,-23.908l-40.919,23.434l-40.98,23.66l-0.072,17.22l-5.955,0l0.079,-16.642l-5.186,-2.717c-2.747,-1.46 -21.426,-12.379 -41.561,-24.171l-36.435,-21.229l-80.817,46.659l-0.058,18.1l-6.122,0l0.111,-17.071l-41.561,-24.171l-41.643,-24.314l-80.531,46.495l-0.062,19.061l-6.38,0c-0.099,-10.275 -0.289,-17.53 -0.589,-18.048c-0.494,-0.857 -18.663,-11.881 -40.396,-24.463l-39.49,-22.893l-18.485,9.531c-10.182,5.117 -28.849,15.323 -41.557,22.66l-22.989,13.272l-0.084,19.941l-6.277,0c-0.133,-11.037 -0.352,-18.378 -0.587,-18.785c-0.45,-0.781 -15.51,-9.886 -34.688,-21.126l0,-6.68l3.981,2.318l35.039,20.131l40.672,-23.863l40.59,-24.005l0.078,-46.689l0.222,-46.771l-9.801,-5.764c-5.291,-3.228 -23.745,-14.087 -40.886,-23.991l-31.226,-18.143l-38.669,21.789l0,-7.705c26.926,-15.164 31.981,-18.445 32.564,-21.031c0.483,-1.802 0.794,-23.685 0.847,-48.655l0.084,-45.36l-6.972,-4.161c-2.743,-1.618 -13.512,-7.967 -26.523,-15.61l0,-6.115l34.103,20.014l83.244,-48.061l0.221,-46.771c0.104,-36.423 -0.476,-47.32 -2.63,-48.742c-1.538,-1.016 -20.3,-12.078 -41.583,-24.54l-38.731,-22.568l-34.624,19.99l0,-6.209l31.739,-18.779l0.237,-47.732l0.38,-47.815l-8.262,-4.749c-3.087,-1.735 -12.664,-7.301 -24.094,-13.947l0,-6.245l34.892,20.43l42.657,-24.06l10.232,0l-8.332,4.618l-41.106,22.781l-0.104,17.956c-0.393,58.674 -0.349,77.877 0.063,78.591c0.66,1.142 67.113,40.07 76.562,44.895l6.478,3.305l78.773,-46.242l0.332,-44.931c0.074,-24.602 0.161,-46.546 0.171,-48.836c-0.281,-3.455 -5.286,-6.848 -40.04,-27.144l-8.569,-4.993l10.603,0l40.217,23.435l14.488,-7.222c6.142,-2.965 18.404,-9.573 30.38,-16.213l10.642,0l-9.821,5.624l-40.266,23.247l-0.126,17.588c-0.079,9.756 -0.188,31.331 -0.155,47.876l-0.111,30.144l40.945,23.765l41.028,23.908l80.389,-46.412l0.237,-47.733l0.012,-47.792l-51.696,-30.215l11.269,0l1.358,0.797l40.946,23.765l41.43,-23.539l1.815,-1.023l14.136,0l-52.958,30.575l-0.245,22.988c0.015,12.556 -0.077,33.171 -0.287,45.667c0.015,12.556 0.309,23.619 0.722,24.333c0.494,0.856 19.36,12.429 41.934,25.478l40.885,23.991l40.694,-23.495l40.612,-23.638l-0.141,-26.953c-0.004,-14.847 0.044,-36.197 0.117,-47.282l-0.111,-20.307l-53.599,-31.357l11.606,0c1.189,0.702 2.389,1.409 3.6,2.121l39.88,23.238l41.43,-23.539l3.229,-1.82l14.103,0l-53.91,31.125l-0.04,46.095c-0.113,25.196 -0.079,46.689 0.191,47.485c0.126,0.879 18.542,12.331 40.973,25.463l40.885,23.99l82.245,-47.484l0.321,-42.64c-0.002,-23.416 -0.096,-44.684 -0.251,-47.26c-0.551,-4.252 -3.567,-6.508 -41.683,-28.67l-13.947,-8.104l12.609,0c1.373,0.813 2.767,1.636 4.176,2.467l41.028,23.908l45.683,-26.375l13.19,0l-54.576,31.509l-0.126,17.588c-0.08,9.756 -0.188,31.331 -0.155,47.876l-0.254,30.227l41.028,23.908l41.088,23.682l39.98,-23.082l39.898,-23.226l0.012,-47.792c0.046,-26.3 -0.461,-48.282 -1.158,-48.831c-0.555,-0.631 -18.701,-11.287 -40.292,-23.952l-13.542,-7.907l12.928,0c1.997,1.176 4.041,2.375 6.116,3.588l40.27,23.584l40.386,-23.698l5.873,-3.474l13.255,0c-4.549,2.458 -9.494,5.134 -14.65,7.933l-40.211,21.693l-0.354,7.629c-0.186,4.296 -0.415,26.322 -0.457,49.002l-0.102,41.371l40.105,23.299l40.247,23.216l39.926,-21.528c32.907,-17.857 40.107,-22.204 40.771,-24.681c0.921,-4.34 1.387,-92.565 0.398,-94.279c-0.375,-0.649 -32.618,-19.877 -56.114,-33.655l10.994,-0c2.851,1.666 5.809,3.375 8.836,5.105l39.633,22.809l48.349,-27.914l12.606,-0l-16.783,9.455l-40.859,23.21l-0.061,13.743c-0.13,7.69 -0.282,28.529 -0.244,46.403c-0.186,17.813 0.066,33.088 0.561,33.945c0.412,0.714 19.113,12.001 41.462,24.99l40.863,23.622l30.842,-17.806c16.991,-9.81 35.515,-19.934 40.903,-22.473l9.858,-4.359l0.133,-48.244l0.358,-48.182l-41.479,-24.029l-17.807,-10.275l11.549,0l49.553,28.876l41.43,-23.539l9.47,-5.337l6.873,0l-0,4.088Zm-182.389,449.322c22.206,13.071 40.539,24.381 40.748,25.402c0.209,1.022 0.326,22.658 0.153,48.079l-0.101,46.32l-80.531,46.495l-40.638,-23.562c-22.206,-13.071 -40.561,-24.748 -40.792,-26.138c-0.358,-2.268 -0.355,-79.755 -0.051,-89.45c0.185,-4.296 0.328,-4.378 40.594,-27.625l40.348,-23.105l40.27,23.584Zm-170.887,-0.527c22.349,12.988 40.825,24.215 41.402,25.215c0.495,0.856 0.754,22.41 0.521,48.056l-0.243,46.403l-40.063,22.94c-21.989,12.695 -40.738,22.759 -41.639,22.517c-0.758,-0.324 -19.107,-10.672 -40.616,-23.194c-23.497,-13.658 -39.248,-23.793 -39.644,-25.468c-0.215,-2.351 -0.333,-79.387 0.01,-89.675c0.185,-4.296 0.328,-4.378 40.022,-27.296l39.838,-23l40.412,23.502Zm-220.288,-17.507l12,-5.595l41.028,23.908l40.885,23.99l-0.278,93.828l-28.31,16.916c-15.481,9.128 -34.208,19.56 -41.677,23.111l-13.368,6.194l-40.637,-23.562l-40.495,-23.644l0.237,-47.733l0.012,-47.793l29.414,-16.982c16.135,-9.315 34.659,-19.439 41.189,-22.638Zm-126.968,11.241c17.674,10.167 36.127,21.026 41.028,23.908l9.103,5.215l-0.221,46.771l-0.079,46.689l-82.53,47.649l-40.945,-23.765c-35.595,-20.763 -40.825,-24.216 -40.964,-27.753c-0.321,-7.811 0.088,-85.913 0.444,-88.594c0.258,-1.862 9.577,-7.813 41.298,-25.747l40.941,-23.066l31.925,18.693Zm-331.385,3.418c21.674,12.808 39.924,23.974 40.336,24.688c0.495,0.857 0.612,22.493 0.461,48.282l-0.221,46.771l-39.876,23.593l-39.815,23.368l-40.413,-23.501c-22.266,-12.846 -40.825,-24.216 -41.319,-25.073c-0.495,-0.856 -0.754,-22.41 -0.806,-47.891l0.243,-46.403l40.837,-23.577l40.919,-23.435l39.654,23.178Zm168.019,-0.482c21.344,12.236 39.737,23.32 40.765,24.441c1.252,1.18 2.077,21.075 1.976,48.929l-0.221,46.771l-40.837,23.577l-40.776,23.352l-39.962,-23.381c-25.118,-14.817 -40.111,-24.628 -40.364,-26.385c-0.441,-2.411 -0.476,-79.305 -0.073,-89.818l0.328,-4.378l40.145,-22.797l40.227,-22.654l38.792,22.343Zm724.084,-166.746l83.736,48.749l-0.243,46.403l-0.326,46.261l-82.53,47.649l-40.945,-23.766c-22.432,-13.131 -40.908,-24.358 -40.869,-24.951c-0.028,-1.698 0.144,-45.585 0.257,-70.781l0.246,-22.987l80.674,-46.577Zm-168.349,-0.089c2.846,0.642 79.347,45.762 80.254,47.333c0.495,0.857 0.837,22.553 0.746,48.117l-0.161,46.546l-80.531,46.494l-42.094,-24.434l-41.868,-24.375l0.024,-45.134c0.134,-24.828 0.183,-46.178 0.259,-47.365c0.378,-2.312 80.526,-47.824 83.371,-47.182Zm-130.93,21.524c22.184,12.703 40.577,23.787 40.907,24.359c0.33,0.571 0.446,22.207 0.438,47.913l-0.221,46.771l-39.876,23.594l-39.958,23.45l-40.33,-23.359c-22.184,-12.703 -40.66,-23.93 -41.154,-24.786c-0.907,-1.571 -1.084,-22.982 -0.738,-73.823l0.229,-22.027l40.228,-22.654l40.37,-22.736l40.105,23.298Zm-169.535,-0.165l41.11,24.051l-0.254,48.693l-0.028,48.754l-11.061,5.244c-6.101,2.952 -24.34,12.91 -40.474,22.226l-29.414,16.982l-40.27,-23.584c-22.206,-13.071 -40.539,-24.381 -40.748,-25.402c-0.127,-0.879 -0.326,-22.658 -0.153,-48.079l0.161,-46.546l80.103,-46.247l41.028,23.908Zm-205.355,-20.988c3.73,1.844 22.777,12.741 42.379,24.27l35.677,20.905l-0.177,47.507l-0.237,47.733l-12.137,7.007c-6.711,3.874 -25.521,14.163 -41.557,22.66l-29.337,15.796l-40.578,-23.788l-40.802,-23.847l0.193,-30.002c-0.033,-16.544 0.076,-38.12 0.155,-47.875l0.126,-17.588l79.818,-46.083l6.477,3.305Zm-138.847,16.385c20.135,11.792 38.814,22.712 41.703,24.089l5.044,2.8l-0.222,46.771l-0.078,46.689l-82.53,47.649l-81.891,-47.53l-0.037,-44.909c0.135,-24.828 0.326,-46.261 0.463,-47.673c0.258,-1.862 10.148,-8.143 40.704,-25.785l40.409,-23.33l36.435,21.229Zm-165.497,1.882c25.343,14.878 41.094,25.012 41.347,26.77c0.611,4.026 0.374,88.692 -0.328,91.763c-0.46,2.17 -10.087,7.918 -41.056,24.846l-40.475,22.226l-34.446,-20.093c-18.987,-11.122 -37.583,-21.899 -41.418,-24.254l-6.746,-4.101l0.138,-46.914l0.282,-46.996l81.816,-47.237l40.886,23.99Zm933.52,-142.974l40.885,23.99l-0.237,47.733l-0.095,47.65l-80.389,46.412l-82.22,-48.101l0.195,-25.053c-0.021,-13.886 0.17,-35.319 0.237,-47.732l0.207,-22.395l40.266,-23.247l40.348,-23.105l40.803,23.848Zm-175.134,-3.597c19.438,11.243 38.117,22.163 41.336,24.111l5.966,3.41l-0.139,46.914l0.004,46.831l-81.959,47.319l-41.028,-23.908c-22.513,-13.274 -41.072,-24.644 -41.198,-25.522c-0.127,-0.879 -0.222,-22.147 -0.191,-47.486l0.122,-45.952l40.716,-23.127l40.942,-23.066l35.429,20.476Zm-164.805,1.102c22.349,12.989 40.825,24.216 41.237,24.93c0.412,0.714 0.754,22.41 0.663,47.974l-0.16,46.546l-41.002,23.291l-40.941,23.067l-37.809,-21.959c-20.893,-12.116 -39.347,-22.975 -41.253,-23.969c-2.994,-1.888 -3.348,-7.776 -3.246,-49.148l0.282,-46.997l81.817,-47.236l40.412,23.501Zm-169.475,-0.39l41.028,23.908l-0.092,20.614c0.009,11.227 -0.039,32.578 -0.034,47.425l0.14,26.953l-81.388,46.989l-39.962,-23.381c-21.899,-12.868 -40.209,-23.809 -40.6,-24.155c-0.247,-0.428 -0.589,-22.125 -0.542,-48.424l0.177,-47.507l80.388,-46.413l40.885,23.991Zm-225.286,-14.621l15.278,-8.821l40.413,23.502c22.266,12.846 40.374,24.094 40.479,24.605c0.044,0.736 0.018,22.455 0.032,48.529l-0.057,47.057l-40.145,22.797l-40.084,22.572l-41.089,-23.683c-22.513,-13.275 -40.907,-24.359 -41.011,-24.869c-0.126,-14.397 0.411,-86.671 0.679,-90.824l0.608,-5.872l24.768,-13.158c13.752,-7.178 31.848,-17.054 40.129,-21.835Zm-190.794,11.156l36.125,-20.856l40.577,23.787c22.206,13.071 40.908,24.358 41.237,24.929c0.412,0.714 0.672,22.268 0.724,47.749l-0.1,46.321l-41.002,23.291l-41.084,23.149l-82.671,-48.222l0.111,-30.145c0.493,-73.01 -0.109,-65.809 5.18,-67.53c2.675,-0.973 21.056,-11.014 40.903,-22.473Z" style="fill:white;fill-opacity:0.2;"/>
    <g transform="matrix(0.31434,0,0,0.0934989,702.693,416.479)">
        <g transform="matrix(115.693,0,0,385.447,0,301.13)">
            <path d="M0.073,-0.479l0.044,-0l0,0.067c0.008,-0.011 0.018,-0.022 0.028,-0.032c0.052,-0.052 0.116,-0.078 0.189,-0.078c0.075,-0 0.138,0.026 0.19,0.078c0.052,0.052 0.079,0.115 0.079,0.19c-0,0.073 -0.027,0.137 -0.079,0.189c-0.052,0.052 -0.115,0.079 -0.19,0.079c-0.073,-0 -0.137,-0.027 -0.189,-0.079c-0.01,-0.01 -0.02,-0.021 -0.028,-0.032l0,0.28l-0.044,0l0,-0.662Zm0.044,0.179l0,0.092c0.009,0.041 0.029,0.078 0.061,0.11c0.043,0.044 0.095,0.065 0.156,0.065c0.062,0 0.114,-0.021 0.157,-0.065c0.044,-0.043 0.065,-0.095 0.065,-0.156c0,-0.062 -0.021,-0.114 -0.065,-0.157c-0.043,-0.043 -0.095,-0.065 -0.157,-0.065c-0.061,-0 -0.113,0.022 -0.156,0.065c-0.032,0.032 -0.052,0.069 -0.061,0.111Z" style="fill:rgb(93,147,180);fill-rule:nonzero;"/>
        </g>
        <g transform="matrix(115.693,0,0,385.447,75.3588,301.13)">
            <path d="M0.165,-0.09c0.041,0.038 0.09,0.057 0.147,0.057c0.061,-0 0.113,-0.022 0.157,-0.065c0.005,-0.006 0.01,-0.011 0.015,-0.017l0.047,0.016c-0.009,0.012 -0.018,0.023 -0.029,0.034c-0.052,0.052 -0.116,0.079 -0.19,0.079c-0.074,-0 -0.137,-0.027 -0.189,-0.079c-0.053,-0.052 -0.079,-0.116 -0.079,-0.19c-0,-0.074 0.026,-0.137 0.079,-0.189c0.052,-0.053 0.115,-0.079 0.189,-0.079c0.063,0 0.119,0.019 0.167,0.057c0.007,0.007 0.015,0.014 0.023,0.022c0.003,0.003 0.006,0.006 0.008,0.008l-0.345,0.346Zm0.28,-0.342c-0.038,-0.029 -0.083,-0.044 -0.133,-0.044c-0.061,-0 -0.113,0.021 -0.156,0.065c-0.044,0.043 -0.065,0.095 -0.065,0.156c-0,0.051 0.014,0.095 0.044,0.133l0.31,-0.31Z" style="fill:rgb(93,147,180);fill-rule:nonzero;"/>
        </g>
        <g transform="matrix(115.693,0,0,385.447,141.849,301.13)">
            <path d="M0.073,-0.479l0.044,-0l0,0.087c0.009,-0.013 0.02,-0.026 0.032,-0.038c0.039,-0.038 0.078,-0.059 0.119,-0.061l0,0.048c-0.028,0.001 -0.056,0.017 -0.086,0.047c-0.042,0.041 -0.063,0.09 -0.065,0.148l0,0.248l-0.044,0l0,-0.479Z" style="fill:rgb(93,147,180);fill-rule:nonzero;"/>
        </g>
        <g transform="matrix(115.693,0,0,385.447,176.816,301.13)">
            <path d="M0.205,-0.247c-0.037,-0.02 -0.063,-0.037 -0.078,-0.051c-0.022,-0.023 -0.033,-0.05 -0.033,-0.081c-0,-0.032 0.011,-0.06 0.033,-0.082c0.023,-0.023 0.05,-0.034 0.081,-0.034c0.032,-0 0.059,0.01 0.08,0.031c0.02,0.021 0.03,0.044 0.03,0.07l-0,0.002l-0.038,0.016c-0.003,-0.025 -0.011,-0.044 -0.023,-0.056c-0.013,-0.012 -0.029,-0.019 -0.049,-0.019c-0.019,0 -0.036,0.007 -0.05,0.021c-0.014,0.014 -0.021,0.031 -0.021,0.051c0,0.019 0.007,0.036 0.021,0.05c0.008,0.008 0.026,0.02 0.052,0.037c0.042,0.023 0.071,0.043 0.089,0.061c0.027,0.028 0.041,0.061 0.041,0.1c0,0.039 -0.014,0.073 -0.041,0.101c-0.028,0.028 -0.061,0.042 -0.101,0.042c-0.039,-0 -0.073,-0.014 -0.1,-0.042c-0.028,-0.028 -0.042,-0.058 -0.042,-0.092l0.044,-0.011c-0,0.029 0.009,0.053 0.029,0.072c0.019,0.019 0.042,0.029 0.069,0.029c0.027,-0 0.05,-0.01 0.07,-0.029c0.019,-0.019 0.029,-0.043 0.029,-0.07c-0,-0.027 -0.01,-0.05 -0.029,-0.07c-0.01,-0.01 -0.031,-0.025 -0.063,-0.046Z" style="fill:rgb(93,147,180);fill-rule:nonzero;"/>
        </g>
        <g transform="matrix(115.693,0,0,385.447,222.122,301.13)">
            <path d="M0.312,-0.523c0.074,0 0.137,0.026 0.19,0.079c0.052,0.052 0.078,0.115 0.078,0.19c0,0.073 -0.026,0.137 -0.078,0.189c-0.053,0.052 -0.116,0.079 -0.19,0.079c-0.074,-0 -0.137,-0.027 -0.189,-0.079c-0.053,-0.052 -0.079,-0.116 -0.079,-0.189c-0,-0.075 0.026,-0.138 0.079,-0.19c0.052,-0.053 0.115,-0.079 0.189,-0.079Zm0,0.047c-0.061,-0 -0.113,0.022 -0.157,0.065c-0.043,0.043 -0.065,0.095 -0.065,0.157c0,0.061 0.022,0.113 0.065,0.156c0.044,0.043 0.096,0.065 0.157,0.065c0.061,-0 0.113,-0.022 0.157,-0.065c0.043,-0.043 0.065,-0.095 0.065,-0.156c-0,-0.062 -0.022,-0.114 -0.065,-0.157c-0.044,-0.043 -0.096,-0.065 -0.157,-0.065Z" style="fill:rgb(93,147,180);fill-rule:nonzero;"/>
        </g>
        <g transform="matrix(115.693,0,0,385.447,294.317,301.13)">
            <path d="M0.117,-0.373l0,0.373l-0.044,-0l0,-0.479l0.044,-0l0,0.03c0.04,-0.039 0.087,-0.059 0.14,-0.059c0.056,-0 0.103,0.017 0.138,0.053c0.036,0.035 0.054,0.08 0.055,0.134l-0,0.321l-0.044,0l-0,-0.317c-0,-0.041 -0.015,-0.075 -0.044,-0.104c-0.03,-0.029 -0.065,-0.043 -0.105,-0.043c-0.041,-0 -0.075,0.014 -0.105,0.042c-0.016,0.016 -0.027,0.033 -0.035,0.049Z" style="fill:rgb(93,147,180);fill-rule:nonzero;"/>
        </g>
        <g transform="matrix(115.693,0,0,385.447,354.819,301.13)">
            <path d="M0.591,-0l-0.044,-0l-0,-0.098c-0.009,0.012 -0.018,0.023 -0.028,0.033c-0.052,0.052 -0.116,0.079 -0.19,0.079c-0.074,-0 -0.137,-0.027 -0.189,-0.079c-0.053,-0.052 -0.079,-0.116 -0.079,-0.189c0,-0.075 0.026,-0.138 0.079,-0.19c0.052,-0.053 0.115,-0.079 0.189,-0.079c0.074,0 0.138,0.026 0.19,0.079c0.01,0.01 0.019,0.021 0.028,0.032l-0,-0.067l0.044,-0l-0,0.479Zm-0.044,-0.211l-0,-0.087c-0.008,-0.043 -0.029,-0.081 -0.061,-0.113c-0.043,-0.043 -0.096,-0.065 -0.157,-0.065c-0.061,-0 -0.113,0.022 -0.157,0.065c-0.043,0.043 -0.065,0.095 -0.065,0.157c0,0.061 0.022,0.113 0.065,0.156c0.044,0.043 0.096,0.065 0.157,0.065c0.061,-0 0.114,-0.022 0.157,-0.065c0.032,-0.033 0.053,-0.07 0.061,-0.113Z" style="fill:rgb(93,147,180);fill-rule:nonzero;"/>
        </g>
        <g transform="matrix(115.693,0,0,385.447,431.647,301.13)">
            <rect x="0.073" y="-0.781" width="0.044" height="0.781" style="fill:rgb(93,147,180);fill-rule:nonzero;"/>
        </g>
        <g transform="matrix(115.693,0,0,385.447,493.674,301.13)">
            <path d="M0.36,-0.649c0.012,-0 0.023,0.004 0.031,0.012c0.009,0.009 0.013,0.019 0.013,0.031c0,0.012 -0.004,0.023 -0.013,0.031c-0.008,0.009 -0.019,0.013 -0.031,0.013c-0.012,-0 -0.022,-0.004 -0.031,-0.013c-0.008,-0.008 -0.013,-0.019 -0.013,-0.031c0,-0.012 0.005,-0.022 0.013,-0.031c0.009,-0.008 0.019,-0.012 0.031,-0.012Zm-0.022,0.213l-0.201,0l-0,0.436l-0.044,0l-0,-0.436l-0.049,0l-0,-0.043l0.049,-0l-0,-0.13c0.002,-0.037 0.016,-0.068 0.041,-0.094c0.027,-0.024 0.058,-0.037 0.093,-0.037c0.018,0 0.037,0.004 0.057,0.011l-0.013,0.039c-0.014,-0.006 -0.027,-0.009 -0.04,-0.009c-0.023,-0 -0.045,0.009 -0.065,0.028c-0.019,0.018 -0.028,0.039 -0.029,0.065l-0,0.127l0.245,-0l0,0.479l-0.044,-0l0,-0.436Z" style="fill:rgb(93,147,180);fill-rule:nonzero;"/>
        </g>
        <g transform="matrix(115.693,0,0,385.447,547.51,301.13)">
            <path d="M0.117,-0.373l0,0.373l-0.044,-0l0,-0.479l0.044,-0l0,0.03c0.04,-0.039 0.087,-0.059 0.14,-0.059c0.056,-0 0.103,0.017 0.138,0.053c0.036,0.035 0.054,0.08 0.055,0.134l-0,0.321l-0.044,0l-0,-0.317c-0,-0.041 -0.015,-0.075 -0.044,-0.104c-0.03,-0.029 -0.065,-0.043 -0.105,-0.043c-0.041,-0 -0.075,0.014 -0.105,0.042c-0.016,0.016 -0.027,0.033 -0.035,0.049Z" style="fill:rgb(93,147,180);fill-rule:nonzero;"/>
        </g>
        <g transform="matrix(115.693,0,0,385.447,608.011,301.13)">
            <path d="M0.591,-0l-0.044,-0l-0,-0.098c-0.009,0.012 -0.018,0.023 -0.028,0.033c-0.052,0.052 -0.116,0.079 -0.19,0.079c-0.074,-0 -0.137,-0.027 -0.189,-0.079c-0.053,-0.052 -0.079,-0.116 -0.079,-0.189c0,-0.075 0.026,-0.138 0.079,-0.19c0.052,-0.053 0.115,-0.079 0.189,-0.079c0.074,0 0.138,0.026 0.19,0.079c0.01,0.01 0.019,0.021 0.028,0.032l-0,-0.067l0.044,-0l-0,0.479Zm-0.044,-0.211l-0,-0.087c-0.008,-0.043 -0.029,-0.081 -0.061,-0.113c-0.043,-0.043 -0.096,-0.065 -0.157,-0.065c-0.061,-0 -0.113,0.022 -0.157,0.065c-0.043,0.043 -0.065,0.095 -0.065,0.157c0,0.061 0.022,0.113 0.065,0.156c0.044,0.043 0.096,0.065 0.157,0.065c0.061,-0 0.114,-0.022 0.157,-0.065c0.032,-0.033 0.053,-0.07 0.061,-0.113Z" style="fill:rgb(93,147,180);fill-rule:nonzero;"/>
        </g>
        <g transform="matrix(115.693,0,0,385.447,684.839,301.13)">
            <path d="M0.117,-0.373l0,0.373l-0.044,-0l0,-0.479l0.044,-0l0,0.03c0.04,-0.039 0.087,-0.059 0.14,-0.059c0.056,-0 0.103,0.017 0.138,0.053c0.036,0.035 0.054,0.08 0.055,0.134l-0,0.321l-0.044,0l-0,-0.317c-0,-0.041 -0.015,-0.075 -0.044,-0.104c-0.03,-0.029 -0.065,-0.043 -0.105,-0.043c-0.041,-0 -0.075,0.014 -0.105,0.042c-0.016,0.016 -0.027,0.033 -0.035,0.049Z" style="fill:rgb(93,147,180);fill-rule:nonzero;"/>
        </g>
        <g transform="matrix(115.693,0,0,385.447,745.341,301.13)">
            <path d="M0.484,-0.115l0.047,0.016c-0.009,0.012 -0.018,0.023 -0.029,0.034c-0.052,0.052 -0.116,0.079 -0.19,0.079c-0.074,-0 -0.137,-0.027 -0.189,-0.079c-0.053,-0.052 -0.079,-0.116 -0.079,-0.19c-0,-0.074 0.026,-0.137 0.079,-0.189c0.052,-0.053 0.115,-0.079 0.189,-0.079c0.074,0 0.138,0.026 0.19,0.079c0.011,0.01 0.02,0.021 0.029,0.033l-0.047,0.017c-0.005,-0.006 -0.01,-0.012 -0.015,-0.018c-0.044,-0.043 -0.096,-0.064 -0.157,-0.064c-0.061,-0 -0.113,0.021 -0.156,0.065c-0.044,0.043 -0.065,0.095 -0.065,0.156c-0,0.061 0.021,0.114 0.065,0.157c0.043,0.043 0.095,0.065 0.156,0.065c0.061,-0 0.113,-0.022 0.157,-0.065c0.005,-0.006 0.01,-0.011 0.015,-0.017Z" style="fill:rgb(93,147,180);fill-rule:nonzero;"/>
        </g>
        <g transform="matrix(115.693,0,0,385.447,811.83,301.13)">
            <path d="M0.165,-0.09c0.041,0.038 0.09,0.057 0.147,0.057c0.061,-0 0.113,-0.022 0.157,-0.065c0.005,-0.006 0.01,-0.011 0.015,-0.017l0.047,0.016c-0.009,0.012 -0.018,0.023 -0.029,0.034c-0.052,0.052 -0.116,0.079 -0.19,0.079c-0.074,-0 -0.137,-0.027 -0.189,-0.079c-0.053,-0.052 -0.079,-0.116 -0.079,-0.19c-0,-0.074 0.026,-0.137 0.079,-0.189c0.052,-0.053 0.115,-0.079 0.189,-0.079c0.063,0 0.119,0.019 0.167,0.057c0.007,0.007 0.015,0.014 0.023,0.022c0.003,0.003 0.006,0.006 0.008,0.008l-0.345,0.346Zm0.28,-0.342c-0.038,-0.029 -0.083,-0.044 -0.133,-0.044c-0.061,-0 -0.113,0.021 -0.156,0.065c-0.044,0.043 -0.065,0.095 -0.065,0.156c-0,0.051 0.014,0.095 0.044,0.133l0.31,-0.31Z" style="fill:rgb(93,147,180);fill-rule:nonzero;"/>
        </g>
    </g>
    <g transform="matrix(1,0,0,1,116.867,-5.68434e-14)">
        <g transform="matrix(0.759525,0,0,0.761903,92.4978,111.961)">
            <g transform="matrix(1,0,0,1,15,17.0714)">
                <path d="M396.528,164.998c7.811,0.251 13.564,11.678 6.045,17.769c-0.035,0.029 -0.232,0.18 -0.491,0.355c0,-0 -39.373,22.853 -53.852,31.257c-3.257,1.891 -5.261,5.365 -5.261,9.122l0,64.998c0,3.731 1.989,7.18 5.223,9.057c14.449,8.386 53.89,31.28 53.89,31.28c0,-0 4.626,2.845 5.556,6.956c1.211,5.356 -2.817,11.392 -8.493,12.121c-2.541,0.326 -5.186,-0.377 -7.259,-1.909c-0,-0 -39.211,-22.782 -53.692,-31.196c-3.271,-1.9 -7.313,-1.906 -10.59,-0.016c-12.57,7.252 -44.07,25.427 -56.596,32.654c-3.25,1.875 -5.248,5.339 -5.238,9.083c0.034,13.11 0.098,44.372 -0.019,61.971c-0.136,7.107 -9.155,12.552 -15.605,8.128c-2.707,-1.857 -4.398,-5.059 -4.409,-8.369c-0,-0 0,-45.577 0,-62.266c0,-3.731 -1.995,-7.179 -5.235,-9.048c-12.453,-7.181 -43.732,-25.219 -56.219,-32.419c-3.257,-1.878 -7.275,-1.871 -10.525,0.019c-14.61,8.496 -54.633,31.77 -54.633,31.77c-0.797,0.453 -0.979,0.512 -1.477,0.699c-6.192,2.334 -14.237,-2.952 -13.445,-10.339c0.342,-3.191 2.285,-6.148 5.072,-7.737c0,0 40.37,-23.456 55.056,-31.989c3.258,-1.892 5.261,-5.368 5.261,-9.127c0,-14.216 0,-49.536 0,-63.72c0,-3.738 -1.993,-7.194 -5.233,-9.076c-14.697,-8.535 -55.286,-32.104 -55.286,-32.104c-6.021,-3.578 -6.45,-13.938 0.421,-17.465c3.048,-1.564 6.885,-1.441 9.835,0.316c0,-0 39.872,23.169 54.462,31.647c3.256,1.892 7.28,1.898 10.541,0.016c12.468,-7.194 43.641,-25.182 56.119,-32.382c3.272,-1.888 5.286,-5.372 5.284,-9.141c-0.022,-20.804 -0.132,-41.609 0.003,-62.413c0.132,-6.881 8.629,-12.41 15.161,-8.416c2.945,1.801 4.84,5.158 4.853,8.657c0,0 -0,45.124 -0,61.714c-0,3.73 1.992,7.178 5.228,9.049c12.518,7.24 44.099,25.504 56.657,32.767c3.257,1.884 7.277,1.88 10.53,-0.011c14.488,-8.42 53.897,-31.322 53.897,-31.322c-0,-0 2.311,-0.981 4.464,-0.94Zm-200.621,49.751c-3.236,1.869 -5.228,5.314 -5.228,9.042c0,14.27 0,50.007 0,64.272c0,3.725 1.991,7.168 5.224,9.036c12.349,7.134 43.235,24.977 55.636,32.142c3.264,1.885 7.29,1.884 10.551,-0.003c12.393,-7.171 43.248,-25.024 55.615,-32.181c3.25,-1.88 5.25,-5.342 5.25,-9.088c-0,-14.268 -0,-49.889 -0,-64.181c-0,-3.759 -2.01,-7.234 -5.274,-9.117c-12.377,-7.14 -43.173,-24.906 -55.57,-32.058c-3.274,-1.889 -7.312,-1.888 -10.585,0.003c-18.54,10.711 -37.08,21.422 -55.619,32.133Z" style="fill:url(#_Linear2);fill-rule:nonzero;"/>
            </g>
            <g transform="matrix(1,0,0,1,15,17.0714)">
                <path d="M256.161,-1.499c1.628,0.04 3.232,0.467 4.665,1.247c71.909,40.698 143.141,82.579 214.711,123.869c2.953,1.736 4.871,4.984 4.961,8.421c0.813,82.577 0.002,165.163 0.002,247.744c-0.034,3.43 -1.895,6.707 -4.829,8.5c-71.261,41.911 -143.144,82.756 -214.829,123.939c-2.96,1.636 -6.685,1.655 -9.671,0.028c-71.891,-40.73 -143.139,-82.585 -214.708,-123.878c-2.953,-1.736 -4.87,-4.984 -4.961,-8.421c-0.813,-82.577 -0.002,-165.163 -0.002,-247.745c0.034,-3.428 1.895,-6.707 4.829,-8.499c71.224,-41.887 143.139,-82.588 214.709,-123.881c1.558,-0.882 3.334,-1.338 5.123,-1.324Zm-198.071,135.718c-4.069,2.348 -6.576,6.68 -6.576,11.368c0,35.526 0,185.406 0,220.844c0,4.663 2.493,8.971 6.541,11.307c30.725,17.727 160.526,92.615 191.356,110.402c4.076,2.352 9.102,2.352 13.178,0c30.83,-17.787 160.629,-92.674 191.356,-110.402c4.048,-2.335 6.541,-6.645 6.541,-11.307c-0,-35.432 -0,-185.248 -0,-220.819c-0,-4.703 -2.515,-9.05 -6.598,-11.406c-30.83,-17.787 -160.498,-92.599 -191.303,-110.371c-4.073,-2.351 -9.097,-2.351 -13.171,-0c-63.774,36.794 -127.549,73.589 -191.324,110.384Z" style="fill:url(#_Linear3);fill-rule:nonzero;"/>
            </g>
        </g>
        <g>
            <g transform="matrix(1,0,0,1,497.494,220.015)">
                <path d="M105.2,17.68l0,8.49l-64.2,0l0,67.39l64.2,0l0,9.63l-64.2,0l0,76.45l-9.38,0l0,-162l73.58,0.04Z" style="fill:url(#_Linear4);fill-rule:nonzero;"/>
            </g>
            <g transform="matrix(1,0,0,1,497.494,220.015)">
                <rect x="134.58" y="17.68" width="9.42" height="162" style="fill:url(#_Linear5);fill-rule:nonzero;"/>
            </g>
            <g transform="matrix(1,0,0,1,497.494,220.015)">
                <path d="M226.91,70.94c16,0 29.64,5.44 40.92,16.32c11.28,10.88 16.917,24.023 16.91,39.43c0,15.333 -5.637,28.44 -16.91,39.32c-11.273,10.88 -24.913,16.32 -40.92,16.32c-15.94,-0.007 -29.577,-5.45 -40.91,-16.33c-11.333,-10.88 -17,-23.987 -17,-39.32c0,-15.407 5.667,-28.55 17,-39.43c11.333,-10.88 24.97,-16.317 40.91,-16.31Zm-33.81,23.21c-9.333,8.987 -14,19.83 -14,32.53c0,12.7 4.667,23.527 14,32.48c18.877,17.801 48.743,17.801 67.62,0c9.333,-8.953 14,-19.78 14,-32.48c0,-12.7 -4.667,-23.543 -14,-32.53c-18.849,-17.865 -48.771,-17.865 -67.62,0Z" style="fill:url(#_Linear6);fill-rule:nonzero;"/>
            </g>
            <g transform="matrix(1,0,0,1,497.494,220.015)">
                <path d="M360,153.27l0,-73.27l9.42,-0l0,71c-0.145,5.668 2.151,11.135 6.3,15c8.361,7.928 21.639,7.928 30,0c3.756,-3.511 5.984,-8.363 6.2,-13.5l-0.11,0l0,-72.5l9.42,0l0,72.36c-0.186,7.55 -3.411,14.715 -8.94,19.86c-12.025,11.551 -31.285,11.551 -43.31,0c-1.551,-1.483 -2.958,-3.11 -4.2,-4.86c-1.262,1.767 -2.707,3.396 -4.31,4.86c-12.025,11.551 -31.285,11.551 -43.31,0c-5.53,-5.144 -8.756,-12.309 -8.94,-19.86l0,-72.36l9.42,-0l0,72.49l-0.11,0c0.227,5.162 2.507,10.024 6.33,13.5c3.986,3.938 9.398,6.103 15,6c5.619,0.081 11.045,-2.079 15.07,-6c3.517,-3.349 5.679,-7.879 6.07,-12.72Z" style="fill:url(#_Linear7);fill-rule:nonzero;"/>
            </g>
            <g transform="matrix(1,0,0,1,497.494,220.015)">
                <path d="M105.2,17.68l0,8.49l-64.2,0l0,67.39l64.2,0l0,9.63l-64.2,0l0,76.45l-9.38,0l0,-162l73.58,0.04Z" style="fill:url(#_Linear8);fill-rule:nonzero;"/>
            </g>
            <g transform="matrix(1,0,0,1,497.494,220.015)">
                <rect x="134.58" y="17.68" width="9.42" height="162" style="fill:url(#_Linear9);fill-rule:nonzero;"/>
            </g>
            <g transform="matrix(1,0,0,1,497.494,220.015)">
                <path d="M226.91,70.94c16,0 29.64,5.44 40.92,16.32c11.28,10.88 16.917,24.023 16.91,39.43c0,15.333 -5.637,28.44 -16.91,39.32c-11.273,10.88 -24.913,16.32 -40.92,16.32c-15.94,-0.007 -29.577,-5.45 -40.91,-16.33c-11.333,-10.88 -17,-23.987 -17,-39.32c0,-15.407 5.667,-28.55 17,-39.43c11.333,-10.88 24.97,-16.317 40.91,-16.31Zm-33.81,23.21c-9.333,8.987 -14,19.83 -14,32.53c0,12.7 4.667,23.527 14,32.48c18.877,17.801 48.743,17.801 67.62,0c9.333,-8.953 14,-19.78 14,-32.48c0,-12.7 -4.667,-23.543 -14,-32.53c-18.849,-17.865 -48.771,-17.865 -67.62,0Z" style="fill:url(#_Linear10);fill-rule:nonzero;"/>
            </g>
            <g transform="matrix(1,0,0,1,497.494,220.015)">
                <path d="M360,153.27l0,-73.27l9.42,-0l0,71c-0.145,5.668 2.151,11.135 6.3,15c8.361,7.928 21.639,7.928 30,0c3.756,-3.511 5.984,-8.363 6.2,-13.5l-0.11,0l0,-72.5l9.42,0l0,72.36c-0.186,7.55 -3.411,14.715 -8.94,19.86c-12.025,11.551 -31.285,11.551 -43.31,0c-1.551,-1.483 -2.958,-3.11 -4.2,-4.86c-1.262,1.767 -2.707,3.396 -4.31,4.86c-12.025,11.551 -31.285,11.551 -43.31,0c-5.53,-5.144 -8.756,-12.309 -8.94,-19.86l0,-72.36l9.42,-0l0,72.49l-0.11,0c0.227,5.162 2.507,10.024 6.33,13.5c3.986,3.938 9.398,6.103 15,6c5.619,0.081 11.045,-2.079 15.07,-6c3.517,-3.349 5.679,-7.879 6.07,-12.72Z" style="fill:url(#_Linear11);fill-rule:nonzero;"/>
            </g>
        </g>
    </g>
    <defs>
        <linearGradient id="_Linear1" x1="0" y1="0" x2="1" y2="0" gradientUnits="userSpaceOnUse" gradientTransform="matrix(802.741,-209.581,209.581,802.741,157.638,422.193)"><stop offset="0" style="stop-color:white;stop-opacity:1"/><stop offset="1" style="stop-color:rgb(204,208,210);stop-opacity:1"/></linearGradient>
        <linearGradient id="_Linear2" x1="0" y1="0" x2="1" y2="0.00271143" gradientUnits="userSpaceOnUse" gradientTransform="matrix(138.89,-240.56,240.56,138.89,186.33,376.33)"><stop offset="0" style="stop-color:rgb(255,147,0);stop-opacity:1"/><stop offset="1" style="stop-color:rgb(216,70,98);stop-opacity:1"/></linearGradient>
        <linearGradient id="_Linear3" x1="0" y1="0" x2="1" y2="0.00271139" gradientUnits="userSpaceOnUse" gradientTransform="matrix(207,-358.54,358.54,207,152.5,435.27)"><stop offset="0" style="stop-color:rgb(0,181,112);stop-opacity:1"/><stop offset="1" style="stop-color:rgb(0,172,228);stop-opacity:1"/></linearGradient>
        <linearGradient id="_Linear4" x1="0" y1="0" x2="1" y2="0" gradientUnits="userSpaceOnUse" gradientTransform="matrix(73.58,0,0,73.58,31.62,98.66)"><stop offset="0" style="stop-color:rgb(255,147,0);stop-opacity:1"/><stop offset="1" style="stop-color:rgb(216,70,98);stop-opacity:1"/></linearGradient>
        <linearGradient id="_Linear5" x1="0" y1="0" x2="1" y2="0" gradientUnits="userSpaceOnUse" gradientTransform="matrix(88.7364,0,0,88.7364,1402.7,16000.6)"><stop offset="0" style="stop-color:rgb(255,147,0);stop-opacity:1"/><stop offset="1" style="stop-color:rgb(216,70,98);stop-opacity:1"/></linearGradient>
        <linearGradient id="_Linear6" x1="0" y1="0" x2="1" y2="0" gradientUnits="userSpaceOnUse" gradientTransform="matrix(13386.5,0,0,13386.5,19738.3,14176.3)"><stop offset="0" style="stop-color:rgb(255,147,0);stop-opacity:1"/><stop offset="1" style="stop-color:rgb(216,70,98);stop-opacity:1"/></linearGradient>
        <linearGradient id="_Linear7" x1="0" y1="0" x2="1" y2="0" gradientUnits="userSpaceOnUse" gradientTransform="matrix(12770.1,0,0,12770.1,35143.6,13239.2)"><stop offset="0" style="stop-color:rgb(255,147,0);stop-opacity:1"/><stop offset="1" style="stop-color:rgb(216,70,98);stop-opacity:1"/></linearGradient>
        <linearGradient id="_Linear8" x1="0" y1="0" x2="1" y2="0" gradientUnits="userSpaceOnUse" gradientTransform="matrix(389.63,0,0,389.63,31.63,100)"><stop offset="0" style="stop-color:rgb(255,147,0);stop-opacity:1"/><stop offset="1" style="stop-color:rgb(222,100,123);stop-opacity:1"/></linearGradient>
        <linearGradient id="_Linear9" x1="0" y1="0" x2="1" y2="0" gradientUnits="userSpaceOnUse" gradientTransform="matrix(389.63,0,0,389.63,31.63,100)"><stop offset="0" style="stop-color:rgb(255,147,0);stop-opacity:1"/><stop offset="1" style="stop-color:rgb(222,100,123);stop-opacity:1"/></linearGradient>
        <linearGradient id="_Linear10" x1="0" y1="0" x2="1" y2="0" gradientUnits="userSpaceOnUse" gradientTransform="matrix(389.63,0,0,389.63,31.63,100)"><stop offset="0" style="stop-color:rgb(255,147,0);stop-opacity:1"/><stop offset="1" style="stop-color:rgb(222,100,123);stop-opacity:1"/></linearGradient>
        <linearGradient id="_Linear11" x1="0" y1="0" x2="1" y2="0" gradientUnits="userSpaceOnUse" gradientTransform="matrix(389.63,0,0,389.63,31.63,100)"><stop offset="0" style="stop-color:rgb(255,147,0);stop-opacity:1"/><stop offset="1" style="stop-color:rgb(222,100,123);stop-opacity:1"/></linearGradient>
    </defs>
</svg>
