<?xml version="1.0" standalone="no"?>
<!DOCTYPE svg PUBLIC "-//W3C//DTD SVG 20010904//EN"
 "http://www.w3.org/TR/2001/REC-SVG-20010904/DTD/svg10.dtd">
<svg version="1.0" xmlns="http://www.w3.org/2000/svg"
 width="700.000000pt" height="700.000000pt" viewBox="0 0 700.000000 700.000000"
 preserveAspectRatio="xMidYMid meet">
<metadata>
Created by potrace 1.11, written by Peter Selinger 2001-2013
</metadata>
<g transform="translate(0.000000,700.000000) scale(0.100000,-0.100000)"
fill="#000000" stroke="none">
<path d="M3335 6675 c-71 -41 -137 -79 -145 -84 -13 -8 -95 -56 -280 -162 -25
-14 -205 -118 -400 -231 -195 -113 -447 -258 -560 -323 -195 -112 -368 -212
-510 -295 -88 -52 -575 -332 -625 -360 -84 -47 -134 -85 -139 -104 -11 -42 -6
-3214 5 -3239 7 -17 165 -113 537 -328 289 -167 547 -316 573 -331 44 -25 165
-94 694 -400 105 -61 249 -144 320 -185 72 -41 137 -79 145 -83 63 -39 343
-200 347 -200 2 0 22 -12 45 -26 95 -60 148 -83 176 -74 28 8 37 13 312 172
91 53 181 105 200 116 19 10 150 86 290 167 140 81 343 198 450 260 235 136
518 299 735 425 88 51 176 102 195 113 175 99 589 341 605 353 20 15 20 28 23
1627 1 1101 -1 1620 -8 1637 -6 14 -19 31 -30 37 -16 11 -421 245 -855 495
-71 41 -202 117 -290 168 -88 51 -178 103 -200 115 -22 13 -224 130 -450 260
-956 553 -961 555 -996 555 -24 0 -73 -23 -164 -75z m378 -248 c116 -68 336
-195 487 -282 151 -87 374 -216 495 -286 121 -70 236 -136 255 -147 19 -11 76
-43 125 -72 50 -29 110 -64 134 -78 25 -14 68 -38 95 -55 28 -16 69 -40 91
-52 22 -12 96 -55 165 -95 68 -40 140 -82 160 -93 19 -10 55 -31 80 -46 25
-14 57 -33 71 -41 15 -8 81 -46 148 -84 l121 -70 0 -1525 0 -1526 -133 -76
c-259 -150 -583 -337 -617 -356 -19 -11 -85 -49 -146 -85 -61 -36 -117 -68
-125 -71 -8 -4 -27 -15 -44 -26 -16 -10 -77 -45 -135 -78 -58 -33 -145 -84
-195 -113 -49 -29 -106 -62 -125 -72 -19 -11 -80 -46 -135 -78 -55 -32 -116
-67 -135 -78 -19 -11 -192 -111 -385 -222 -192 -112 -376 -217 -409 -235 l-59
-32 -144 83 c-79 46 -163 95 -186 108 -23 13 -168 96 -322 186 -154 89 -300
174 -325 188 -42 23 -389 224 -905 522 -178 103 -599 346 -727 419 l-28 16 0
1526 0 1525 87 51 c49 27 196 112 328 188 132 76 254 146 270 155 17 9 68 40
115 67 89 53 397 230 465 269 22 12 123 70 225 129 102 59 290 168 419 242
128 74 267 155 308 179 41 24 76 44 78 44 2 0 79 45 171 99 93 55 170 100 172
100 1 1 98 -54 215 -122z"/>
<path d="M3463 5655 c-59 -25 -59 -25 -59 -524 l1 -453 -25 -17 c-14 -10 -211
-125 -439 -256 -345 -198 -417 -236 -432 -227 -10 6 -188 110 -397 232 -417
242 -422 244 -473 189 -32 -34 -36 -66 -15 -107 12 -23 185 -132 361 -228 11
-6 117 -68 235 -137 l215 -125 3 -500 2 -500 -272 -158 c-150 -86 -292 -169
-315 -183 -23 -14 -81 -48 -128 -76 -119 -68 -144 -122 -86 -184 44 -47 76
-42 195 28 462 271 692 401 703 397 7 -3 57 -31 110 -62 54 -31 114 -65 133
-76 142 -80 580 -334 600 -348 l25 -17 0 -461 c0 -449 1 -462 21 -488 27 -36
67 -47 110 -29 58 24 58 19 58 510 1 248 4 455 8 461 4 6 47 34 95 62 97 55
382 219 625 360 l157 91 198 -116 c109 -64 214 -125 233 -136 19 -10 76 -43
125 -72 50 -29 106 -62 125 -73 19 -10 52 -29 73 -42 66 -39 140 -12 153 55
12 65 -4 79 -298 249 -150 87 -327 191 -393 230 l-120 71 0 503 c0 436 2 505
15 516 12 10 475 282 620 363 129 73 158 94 170 122 25 61 -20 131 -86 131
-16 0 -72 -26 -131 -60 -57 -34 -118 -69 -136 -79 -18 -10 -137 -80 -266 -155
-129 -75 -236 -136 -239 -136 -3 0 -13 -7 -23 -16 -15 -14 -21 -13 -65 14 -65
40 -762 441 -796 459 -15 8 -31 20 -35 26 -5 7 -9 208 -9 447 -2 526 1 474
-26 503 -29 32 -65 39 -105 22z m95 -1169 c20 -13 156 -92 302 -176 146 -84
324 -186 395 -228 l130 -75 0 -503 c0 -322 -4 -506 -10 -513 -8 -8 -657 -384
-821 -476 l-51 -28 -109 65 c-60 35 -256 149 -436 253 l-328 189 0 506 0 507
238 138 c130 76 257 149 282 163 25 14 98 56 163 94 65 37 121 68 125 68 4 0
18 9 32 20 32 25 43 25 88 -4z"/>
</g>
</svg>
