<?xml version="1.0" encoding="UTF-8" standalone="no"?>
<!DOCTYPE svg PUBLIC "-//W3C//DTD SVG 1.1//EN" "http://www.w3.org/Graphics/SVG/1.1/DTD/svg11.dtd">
<svg width="100%" height="100%" viewBox="0 0 379 334" version="1.1" xmlns="http://www.w3.org/2000/svg" xmlns:xlink="http://www.w3.org/1999/xlink" xml:space="preserve" style="fill-rule:evenodd;clip-rule:evenodd;stroke-linejoin:round;stroke-miterlimit:2;">
    <g id="docker" transform="matrix(0.306425,0,0,0.306425,-19.7881,-42.2883)">
        <g transform="matrix(-1,0,0,1,1331.37,-778.436)">
            <rect x="601.653" y="1008.19" width="128.062" height="128.062" style="fill:rgb(0,157,219);"/>
        </g>
        <g transform="matrix(-1,0,0,1,1331.37,-456.45)">
            <rect x="601.653" y="847.194" width="128.062" height="128.062" style="fill:rgb(0,157,219);"/>
        </g>
        <g transform="matrix(-1,0,0,1,1331.37,-134.466)">
            <rect x="601.653" y="686.202" width="128.062" height="128.062" style="fill:rgb(0,157,219);"/>
        </g>
        <g transform="matrix(-1,0,0,1,1020.36,-456.45)">
            <rect x="446.148" y="847.194" width="128.062" height="128.062" style="fill:rgb(0,157,219);"/>
        </g>
        <g transform="matrix(-1,0,0,1,1020.36,-134.466)">
            <rect x="446.148" y="686.202" width="128.062" height="128.062" style="fill:rgb(0,157,219);"/>
        </g>
        <g transform="matrix(-1,0,0,1,709.35,-456.45)">
            <rect x="290.644" y="847.194" width="128.062" height="128.062" style="fill:rgb(0,157,219);"/>
        </g>
        <g transform="matrix(-1,0,0,1,709.35,-134.466)">
            <rect x="290.644" y="686.202" width="128.062" height="128.062" style="fill:rgb(0,157,219);"/>
        </g>
        <g transform="matrix(-1,0,0,1,401.999,-134.466)">
            <rect x="136.968" y="686.202" width="128.063" height="128.062" style="fill:rgb(0,157,219);"/>
        </g>
        <g transform="matrix(-1,0,0,1,1642.38,-134.466)">
            <rect x="757.157" y="686.202" width="128.063" height="128.062" style="fill:rgb(0,157,219);"/>
        </g>
        <g transform="matrix(1,0,0,1,483.303,464.836)">
            <path d="M0,671.414c-471.653,0 -416.769,-415.289 -416.769,-415.289l787.426,0c132.795,0 176.702,-42.077 176.702,-42.077c-0,0 -75.008,-96.962 12.806,-214.048c98.791,56.714 95.133,140.869 95.133,140.869c0,0 100.62,-32.93 162.822,23.783c-34.76,113.427 -188.435,106.109 -188.435,106.109c-0,0 -142.699,400.653 -629.685,400.653" style="fill:rgb(0,157,219);fill-rule:nonzero;"/>
        </g>
    </g>
</svg>
