<?xml version="1.0" encoding="UTF-8" standalone="no"?>
<!DOCTYPE svg PUBLIC "-//W3C//DTD SVG 1.1//EN" "http://www.w3.org/Graphics/SVG/1.1/DTD/svg11.dtd">
<svg width="100%" height="100%" viewBox="0 0 510 510" version="1.1" xmlns="http://www.w3.org/2000/svg" xmlns:xlink="http://www.w3.org/1999/xlink" xml:space="preserve" xmlns:serif="http://www.serif.com/" style="fill-rule:evenodd;clip-rule:evenodd;stroke-linejoin:round;stroke-miterlimit:2;">
    <g id="_1ec3704c-1d84-442e-a5e8-416f6c65f3ec" serif:id="1ec3704c-1d84-442e-a5e8-416f6c65f3ec" transform="matrix(4.48364,0,0,4.4909,-31.523,-32.81)">
        <path d="M120.5,28.36c0,-7 2.44,-19.47 -7.15,-20.8c-0.137,-0.039 -0.278,-0.059 -0.42,-0.06c-0.113,-0.012 -0.227,-0.012 -0.34,0l-87.59,0c-5.37,0 -14.07,-1.62 -16.82,4.5c-2.1,4.6 -0.68,12.21 -0.68,17.07l0,70.93c0,4.71 -1.55,13.24 1.48,17.39c2.57,3.52 6.56,3.12 10.37,3.12l48.41,0c0.819,-0.011 1.489,-0.681 1.5,-1.5l0,-42.61c-0.011,-0.819 -0.681,-1.489 -1.5,-1.5l-12.84,0l0,-13.6l12.84,-0c0.819,-0.011 1.489,-0.681 1.5,-1.5c0,-7.33 -1.13,-16 2.16,-22.81c5.34,-11 18.45,-10.58 29,-9.4l0,12c-5.08,-0.19 -12.32,-1 -15.43,3.21c-3.11,4.21 -1.59,12.2 -1.59,17.01c0.011,0.819 0.681,1.489 1.5,1.5l14.75,-0l-1.75,13.6l-13,-0c-0.819,0.011 -1.489,0.681 -1.5,1.5l0,42.59c0.011,0.819 0.681,1.489 1.5,1.5c9.23,-0 18.84,0.83 28,-0c9.16,-0.83 7.56,-10.31 7.56,-16.87l0.04,-75.27Zm-7.56,89.14c-4.23,0.74 -9.25,-0 -13.53,-0l-13,-0l0,-39.59l12.79,-0c0.813,-0.026 1.474,-0.687 1.5,-1.5l2.14,-16.6c-0.005,-0.821 -0.679,-1.495 -1.5,-1.5l-15,-0c-0.16,-3.92 -0.77,-8.65 0.37,-12.21c1.6,-5 11,-3.48 15.19,-3.48c0.819,-0.011 1.489,-0.681 1.5,-1.5l0,-14.85c-0.021,-0.815 -0.685,-1.479 -1.5,-1.5c-11.2,-1.34 -25,-2 -32,8.73c-4.61,7.23 -3.77,16.5 -3.65,24.8l-12.83,-0c-0.819,0.011 -1.489,0.681 -1.5,1.5l0,16.6c0.011,0.819 0.681,1.489 1.5,1.5l12.84,0l0,39.6l-39.39,0c-3.55,0 -7.43,0.44 -11,0c-2.79,-0.35 -4.88,-1.19 -5.42,-4.58c-0.07,-0.42 0,-0.86 0,-1.28c-0.22,-2.84 0,-5.78 0,-8.63l0,-66.46c0,-6.73 -0.74,-13.94 0,-20.64c0.77,-7 8.13,-5.41 13.26,-5.41l89.16,0c7,0.7 4.57,14.76 4.57,19.3l0,79.5c0.06,3.6 0.37,7.34 -4.5,8.2Z" style="fill:rgb(177,185,204);fill-rule:nonzero;"/>
    </g>
</svg>
