<?xml version="1.0" encoding="UTF-8" standalone="no"?>
<!DOCTYPE svg PUBLIC "-//W3C//DTD SVG 1.1//EN" "http://www.w3.org/Graphics/SVG/1.1/DTD/svg11.dtd">
<svg width="100%" height="100%" viewBox="0 0 147 73" version="1.1" xmlns="http://www.w3.org/2000/svg" xmlns:xlink="http://www.w3.org/1999/xlink" xml:space="preserve" xmlns:serif="http://www.serif.com/" style="fill-rule:evenodd;clip-rule:evenodd;stroke-linejoin:round;stroke-miterlimit:2;">
    <g transform="matrix(0.184712,0,0,0.184712,-45.1453,-22.8721)">
        <g transform="matrix(0.331478,0,0,0.0985967,746.132,416.479)">
            <g transform="matrix(115.693,0,0,385.447,0,301.13)">
                <path d="M0.073,-0.479l0.044,-0l0,0.067c0.008,-0.011 0.018,-0.022 0.028,-0.032c0.052,-0.052 0.116,-0.078 0.189,-0.078c0.075,-0 0.138,0.026 0.19,0.078c0.052,0.052 0.079,0.115 0.079,0.19c-0,0.073 -0.027,0.137 -0.079,0.189c-0.052,0.052 -0.115,0.079 -0.19,0.079c-0.073,-0 -0.137,-0.027 -0.189,-0.079c-0.01,-0.01 -0.02,-0.021 -0.028,-0.032l0,0.28l-0.044,0l0,-0.662Zm0.044,0.179l0,0.092c0.009,0.041 0.029,0.078 0.061,0.11c0.043,0.044 0.095,0.065 0.156,0.065c0.062,0 0.114,-0.021 0.157,-0.065c0.044,-0.043 0.065,-0.095 0.065,-0.156c0,-0.062 -0.021,-0.114 -0.065,-0.157c-0.043,-0.043 -0.095,-0.065 -0.157,-0.065c-0.061,-0 -0.113,0.022 -0.156,0.065c-0.032,0.032 -0.052,0.069 -0.061,0.111Z" style="fill:rgb(93,147,180);fill-rule:nonzero;"/>
            </g>
            <g transform="matrix(115.693,0,0,385.447,75.3588,301.13)">
                <path d="M0.165,-0.09c0.041,0.038 0.09,0.057 0.147,0.057c0.061,-0 0.113,-0.022 0.157,-0.065c0.005,-0.006 0.01,-0.011 0.015,-0.017l0.047,0.016c-0.009,0.012 -0.018,0.023 -0.029,0.034c-0.052,0.052 -0.116,0.079 -0.19,0.079c-0.074,-0 -0.137,-0.027 -0.189,-0.079c-0.053,-0.052 -0.079,-0.116 -0.079,-0.19c-0,-0.074 0.026,-0.137 0.079,-0.189c0.052,-0.053 0.115,-0.079 0.189,-0.079c0.063,0 0.119,0.019 0.167,0.057c0.007,0.007 0.015,0.014 0.023,0.022c0.003,0.003 0.006,0.006 0.008,0.008l-0.345,0.346Zm0.28,-0.342c-0.038,-0.029 -0.083,-0.044 -0.133,-0.044c-0.061,-0 -0.113,0.021 -0.156,0.065c-0.044,0.043 -0.065,0.095 -0.065,0.156c-0,0.051 0.014,0.095 0.044,0.133l0.31,-0.31Z" style="fill:rgb(93,147,180);fill-rule:nonzero;"/>
            </g>
            <g transform="matrix(115.693,0,0,385.447,141.849,301.13)">
                <path d="M0.073,-0.479l0.044,-0l0,0.087c0.009,-0.013 0.02,-0.026 0.032,-0.038c0.039,-0.038 0.078,-0.059 0.119,-0.061l0,0.048c-0.028,0.001 -0.056,0.017 -0.086,0.047c-0.042,0.041 -0.063,0.09 -0.065,0.148l0,0.248l-0.044,0l0,-0.479Z" style="fill:rgb(93,147,180);fill-rule:nonzero;"/>
            </g>
            <g transform="matrix(115.693,0,0,385.447,176.816,301.13)">
                <path d="M0.205,-0.247c-0.037,-0.02 -0.063,-0.037 -0.078,-0.051c-0.022,-0.023 -0.033,-0.05 -0.033,-0.081c-0,-0.032 0.011,-0.06 0.033,-0.082c0.023,-0.023 0.05,-0.034 0.081,-0.034c0.032,-0 0.059,0.01 0.08,0.031c0.02,0.021 0.03,0.044 0.03,0.07l-0,0.002l-0.038,0.016c-0.003,-0.025 -0.011,-0.044 -0.023,-0.056c-0.013,-0.012 -0.029,-0.019 -0.049,-0.019c-0.019,0 -0.036,0.007 -0.05,0.021c-0.014,0.014 -0.021,0.031 -0.021,0.051c0,0.019 0.007,0.036 0.021,0.05c0.008,0.008 0.026,0.02 0.052,0.037c0.042,0.023 0.071,0.043 0.089,0.061c0.027,0.028 0.041,0.061 0.041,0.1c0,0.039 -0.014,0.073 -0.041,0.101c-0.028,0.028 -0.061,0.042 -0.101,0.042c-0.039,-0 -0.073,-0.014 -0.1,-0.042c-0.028,-0.028 -0.042,-0.058 -0.042,-0.092l0.044,-0.011c-0,0.029 0.009,0.053 0.029,0.072c0.019,0.019 0.042,0.029 0.069,0.029c0.027,-0 0.05,-0.01 0.07,-0.029c0.019,-0.019 0.029,-0.043 0.029,-0.07c-0,-0.027 -0.01,-0.05 -0.029,-0.07c-0.01,-0.01 -0.031,-0.025 -0.063,-0.046Z" style="fill:rgb(93,147,180);fill-rule:nonzero;"/>
            </g>
            <g transform="matrix(115.693,0,0,385.447,222.122,301.13)">
                <path d="M0.312,-0.523c0.074,0 0.137,0.026 0.19,0.079c0.052,0.052 0.078,0.115 0.078,0.19c0,0.073 -0.026,0.137 -0.078,0.189c-0.053,0.052 -0.116,0.079 -0.19,0.079c-0.074,-0 -0.137,-0.027 -0.189,-0.079c-0.053,-0.052 -0.079,-0.116 -0.079,-0.189c-0,-0.075 0.026,-0.138 0.079,-0.19c0.052,-0.053 0.115,-0.079 0.189,-0.079Zm0,0.047c-0.061,-0 -0.113,0.022 -0.157,0.065c-0.043,0.043 -0.065,0.095 -0.065,0.157c0,0.061 0.022,0.113 0.065,0.156c0.044,0.043 0.096,0.065 0.157,0.065c0.061,-0 0.113,-0.022 0.157,-0.065c0.043,-0.043 0.065,-0.095 0.065,-0.156c-0,-0.062 -0.022,-0.114 -0.065,-0.157c-0.044,-0.043 -0.096,-0.065 -0.157,-0.065Z" style="fill:rgb(93,147,180);fill-rule:nonzero;"/>
            </g>
            <g transform="matrix(115.693,0,0,385.447,294.317,301.13)">
                <path d="M0.117,-0.373l0,0.373l-0.044,-0l0,-0.479l0.044,-0l0,0.03c0.04,-0.039 0.087,-0.059 0.14,-0.059c0.056,-0 0.103,0.017 0.138,0.053c0.036,0.035 0.054,0.08 0.055,0.134l-0,0.321l-0.044,0l-0,-0.317c-0,-0.041 -0.015,-0.075 -0.044,-0.104c-0.03,-0.029 -0.065,-0.043 -0.105,-0.043c-0.041,-0 -0.075,0.014 -0.105,0.042c-0.016,0.016 -0.027,0.033 -0.035,0.049Z" style="fill:rgb(93,147,180);fill-rule:nonzero;"/>
            </g>
            <g transform="matrix(115.693,0,0,385.447,354.819,301.13)">
                <path d="M0.591,-0l-0.044,-0l-0,-0.098c-0.009,0.012 -0.018,0.023 -0.028,0.033c-0.052,0.052 -0.116,0.079 -0.19,0.079c-0.074,-0 -0.137,-0.027 -0.189,-0.079c-0.053,-0.052 -0.079,-0.116 -0.079,-0.189c0,-0.075 0.026,-0.138 0.079,-0.19c0.052,-0.053 0.115,-0.079 0.189,-0.079c0.074,0 0.138,0.026 0.19,0.079c0.01,0.01 0.019,0.021 0.028,0.032l-0,-0.067l0.044,-0l-0,0.479Zm-0.044,-0.211l-0,-0.087c-0.008,-0.043 -0.029,-0.081 -0.061,-0.113c-0.043,-0.043 -0.096,-0.065 -0.157,-0.065c-0.061,-0 -0.113,0.022 -0.157,0.065c-0.043,0.043 -0.065,0.095 -0.065,0.157c0,0.061 0.022,0.113 0.065,0.156c0.044,0.043 0.096,0.065 0.157,0.065c0.061,-0 0.114,-0.022 0.157,-0.065c0.032,-0.033 0.053,-0.07 0.061,-0.113Z" style="fill:rgb(93,147,180);fill-rule:nonzero;"/>
            </g>
            <g transform="matrix(115.693,0,0,385.447,431.647,301.13)">
                <rect x="0.073" y="-0.781" width="0.044" height="0.781" style="fill:rgb(93,147,180);fill-rule:nonzero;"/>
            </g>
            <g transform="matrix(115.693,0,0,385.447,493.674,301.13)">
                <path d="M0.36,-0.649c0.012,-0 0.023,0.004 0.031,0.012c0.009,0.009 0.013,0.019 0.013,0.031c0,0.012 -0.004,0.023 -0.013,0.031c-0.008,0.009 -0.019,0.013 -0.031,0.013c-0.012,-0 -0.022,-0.004 -0.031,-0.013c-0.008,-0.008 -0.013,-0.019 -0.013,-0.031c0,-0.012 0.005,-0.022 0.013,-0.031c0.009,-0.008 0.019,-0.012 0.031,-0.012Zm-0.022,0.213l-0.201,0l-0,0.436l-0.044,0l-0,-0.436l-0.049,0l-0,-0.043l0.049,-0l-0,-0.13c0.002,-0.037 0.016,-0.068 0.041,-0.094c0.027,-0.024 0.058,-0.037 0.093,-0.037c0.018,0 0.037,0.004 0.057,0.011l-0.013,0.039c-0.014,-0.006 -0.027,-0.009 -0.04,-0.009c-0.023,-0 -0.045,0.009 -0.065,0.028c-0.019,0.018 -0.028,0.039 -0.029,0.065l-0,0.127l0.245,-0l0,0.479l-0.044,-0l0,-0.436Z" style="fill:rgb(93,147,180);fill-rule:nonzero;"/>
            </g>
            <g transform="matrix(115.693,0,0,385.447,547.51,301.13)">
                <path d="M0.117,-0.373l0,0.373l-0.044,-0l0,-0.479l0.044,-0l0,0.03c0.04,-0.039 0.087,-0.059 0.14,-0.059c0.056,-0 0.103,0.017 0.138,0.053c0.036,0.035 0.054,0.08 0.055,0.134l-0,0.321l-0.044,0l-0,-0.317c-0,-0.041 -0.015,-0.075 -0.044,-0.104c-0.03,-0.029 -0.065,-0.043 -0.105,-0.043c-0.041,-0 -0.075,0.014 -0.105,0.042c-0.016,0.016 -0.027,0.033 -0.035,0.049Z" style="fill:rgb(93,147,180);fill-rule:nonzero;"/>
            </g>
            <g transform="matrix(115.693,0,0,385.447,608.011,301.13)">
                <path d="M0.591,-0l-0.044,-0l-0,-0.098c-0.009,0.012 -0.018,0.023 -0.028,0.033c-0.052,0.052 -0.116,0.079 -0.19,0.079c-0.074,-0 -0.137,-0.027 -0.189,-0.079c-0.053,-0.052 -0.079,-0.116 -0.079,-0.189c0,-0.075 0.026,-0.138 0.079,-0.19c0.052,-0.053 0.115,-0.079 0.189,-0.079c0.074,0 0.138,0.026 0.19,0.079c0.01,0.01 0.019,0.021 0.028,0.032l-0,-0.067l0.044,-0l-0,0.479Zm-0.044,-0.211l-0,-0.087c-0.008,-0.043 -0.029,-0.081 -0.061,-0.113c-0.043,-0.043 -0.096,-0.065 -0.157,-0.065c-0.061,-0 -0.113,0.022 -0.157,0.065c-0.043,0.043 -0.065,0.095 -0.065,0.157c0,0.061 0.022,0.113 0.065,0.156c0.044,0.043 0.096,0.065 0.157,0.065c0.061,-0 0.114,-0.022 0.157,-0.065c0.032,-0.033 0.053,-0.07 0.061,-0.113Z" style="fill:rgb(93,147,180);fill-rule:nonzero;"/>
            </g>
            <g transform="matrix(115.693,0,0,385.447,684.839,301.13)">
                <path d="M0.117,-0.373l0,0.373l-0.044,-0l0,-0.479l0.044,-0l0,0.03c0.04,-0.039 0.087,-0.059 0.14,-0.059c0.056,-0 0.103,0.017 0.138,0.053c0.036,0.035 0.054,0.08 0.055,0.134l-0,0.321l-0.044,0l-0,-0.317c-0,-0.041 -0.015,-0.075 -0.044,-0.104c-0.03,-0.029 -0.065,-0.043 -0.105,-0.043c-0.041,-0 -0.075,0.014 -0.105,0.042c-0.016,0.016 -0.027,0.033 -0.035,0.049Z" style="fill:rgb(93,147,180);fill-rule:nonzero;"/>
            </g>
            <g transform="matrix(115.693,0,0,385.447,745.341,301.13)">
                <path d="M0.484,-0.115l0.047,0.016c-0.009,0.012 -0.018,0.023 -0.029,0.034c-0.052,0.052 -0.116,0.079 -0.19,0.079c-0.074,-0 -0.137,-0.027 -0.189,-0.079c-0.053,-0.052 -0.079,-0.116 -0.079,-0.19c-0,-0.074 0.026,-0.137 0.079,-0.189c0.052,-0.053 0.115,-0.079 0.189,-0.079c0.074,0 0.138,0.026 0.19,0.079c0.011,0.01 0.02,0.021 0.029,0.033l-0.047,0.017c-0.005,-0.006 -0.01,-0.012 -0.015,-0.018c-0.044,-0.043 -0.096,-0.064 -0.157,-0.064c-0.061,-0 -0.113,0.021 -0.156,0.065c-0.044,0.043 -0.065,0.095 -0.065,0.156c-0,0.061 0.021,0.114 0.065,0.157c0.043,0.043 0.095,0.065 0.156,0.065c0.061,-0 0.113,-0.022 0.157,-0.065c0.005,-0.006 0.01,-0.011 0.015,-0.017Z" style="fill:rgb(93,147,180);fill-rule:nonzero;"/>
            </g>
            <g transform="matrix(115.693,0,0,385.447,811.83,301.13)">
                <path d="M0.165,-0.09c0.041,0.038 0.09,0.057 0.147,0.057c0.061,-0 0.113,-0.022 0.157,-0.065c0.005,-0.006 0.01,-0.011 0.015,-0.017l0.047,0.016c-0.009,0.012 -0.018,0.023 -0.029,0.034c-0.052,0.052 -0.116,0.079 -0.19,0.079c-0.074,-0 -0.137,-0.027 -0.189,-0.079c-0.053,-0.052 -0.079,-0.116 -0.079,-0.19c-0,-0.074 0.026,-0.137 0.079,-0.189c0.052,-0.053 0.115,-0.079 0.189,-0.079c0.063,0 0.119,0.019 0.167,0.057c0.007,0.007 0.015,0.014 0.023,0.022c0.003,0.003 0.006,0.006 0.008,0.008l-0.345,0.346Zm0.28,-0.342c-0.038,-0.029 -0.083,-0.044 -0.133,-0.044c-0.061,-0 -0.113,0.021 -0.156,0.065c-0.044,0.043 -0.065,0.095 -0.065,0.156c-0,0.051 0.014,0.095 0.044,0.133l0.31,-0.31Z" style="fill:rgb(93,147,180);fill-rule:nonzero;"/>
            </g>
        </g>
        <g transform="matrix(1,0,0,1,116.867,-5.68434e-14)">
            <g transform="matrix(0.759525,0,0,0.761903,92.4978,111.961)">
                <g transform="matrix(1,0,0,1,15,17.0714)">
                    <path d="M396.528,164.998c7.811,0.251 13.564,11.678 6.045,17.769c-0.035,0.029 -0.232,0.18 -0.491,0.355c0,-0 -15.505,8.999 -30.633,17.78c-17.633,10.235 -28.48,29.043 -28.48,49.384c0,3.848 0,7.774 0,11.619c0,20.196 10.769,38.87 28.277,49.032c15.193,8.818 30.836,17.899 30.836,17.899c0,-0 4.626,2.845 5.556,6.956c1.211,5.356 -2.817,11.392 -8.493,12.121c-2.541,0.326 -5.186,-0.377 -7.259,-1.909c-0,-0 -15.318,-8.9 -30.341,-17.628c-17.709,-10.29 -39.593,-10.323 -57.334,-0.087c-3.324,1.918 -6.713,3.873 -10.034,5.789c-17.538,10.121 -28.343,28.786 -28.359,48.987c0.007,12.457 -0.004,25.936 -0.067,35.435c-0.136,7.107 -9.155,12.552 -15.605,8.128c-2.707,-1.857 -4.398,-5.059 -4.409,-8.369c-0,-0 -0,-18.094 -0,-35.655c0,-20.2 -10.801,-38.869 -28.342,-48.983c-3.264,-1.883 -6.593,-3.803 -9.86,-5.686c-17.634,-10.169 -39.383,-10.13 -56.98,0.103c-15.451,8.985 -31.43,18.277 -31.43,18.277c-0.797,0.453 -0.979,0.512 -1.477,0.699c-6.192,2.334 -14.237,-2.952 -13.445,-10.339c0.342,-3.191 2.285,-6.148 5.072,-7.737c0,0 16.219,-9.423 31.836,-18.497c17.635,-10.247 28.481,-29.063 28.481,-49.412c0,-3.408 0,-6.872 0,-10.279c0,-20.238 -10.789,-38.95 -28.331,-49.137c-15.744,-9.142 -32.188,-18.691 -32.188,-18.691c-6.021,-3.578 -6.45,-13.938 0.421,-17.465c3.048,-1.564 6.885,-1.441 9.835,0.316c0,-0 15.849,9.209 31.218,18.14c17.628,10.243 39.412,10.276 57.071,0.087c3.136,-1.81 6.329,-3.653 9.467,-5.463c17.711,-10.219 28.612,-29.076 28.602,-49.476c-0.023,-11.854 -0.026,-23.708 0.051,-35.561c0.132,-6.881 8.629,-12.41 15.161,-8.416c2.945,1.801 4.84,5.158 4.853,8.657c0,0 0,17.777 0,35.117c-0,20.193 10.784,38.86 28.305,48.993c3.416,1.976 6.907,3.994 10.326,5.972c17.632,10.197 39.399,10.174 57.009,-0.06c15.145,-8.802 30.672,-17.825 30.672,-17.825c-0,-0 2.311,-0.981 4.464,-0.94Zm-177.549,36.422c-17.516,10.119 -28.3,28.773 -28.3,48.955c0,3.684 0,7.439 0,11.123c0,20.168 10.776,38.809 28.28,48.921c3.077,1.778 6.21,3.588 9.291,5.367c17.666,10.206 39.462,10.199 57.121,-0.019c3.038,-1.758 6.127,-3.545 9.163,-5.302c17.593,-10.18 28.421,-28.925 28.421,-49.203c-0,-3.533 -0,-7.129 -0,-10.664c-0,-20.352 -10.881,-39.162 -28.552,-49.356c-2.959,-1.707 -5.967,-3.442 -8.927,-5.15c-17.727,-10.226 -39.586,-10.22 -57.306,0.018c-3.064,1.77 -6.128,3.54 -9.191,5.31Z" style="fill:url(#_Linear1);fill-rule:nonzero;"/>
                </g>
                <g transform="matrix(1,0,0,1,15,17.0714)">
                    <path d="M256.161,-1.499c1.628,0.04 3.232,0.467 4.665,1.247c71.909,40.698 143.141,82.579 214.711,123.869c2.953,1.736 4.871,4.984 4.961,8.421c0.813,82.577 0.002,165.163 0.002,247.744c-0.034,3.43 -1.895,6.707 -4.829,8.5c-71.261,41.911 -143.144,82.756 -214.829,123.939c-2.96,1.636 -6.685,1.655 -9.671,0.028c-71.891,-40.73 -143.139,-82.585 -214.708,-123.878c-2.953,-1.736 -4.87,-4.984 -4.961,-8.421c-0.813,-82.577 -0.002,-165.163 -0.002,-247.745c0.034,-3.428 1.895,-6.707 4.829,-8.499c71.224,-41.887 143.139,-82.588 214.709,-123.881c1.558,-0.882 3.334,-1.338 5.123,-1.324Zm-169.046,118.972c-22.033,12.712 -35.6,36.166 -35.601,61.544c0,43.252 0,110.997 0,154.164c0.001,25.241 13.494,48.569 35.409,61.212c37.368,21.56 95.937,55.351 133.405,76.968c22.067,12.731 49.277,12.731 71.344,0c37.467,-21.616 96.033,-55.406 133.402,-76.966c21.916,-12.645 35.412,-35.974 35.412,-61.218c-0,-43.123 -0,-110.768 -0,-154.024c-0,-25.462 -13.613,-48.994 -35.719,-61.748c-37.388,-21.571 -95.75,-55.243 -133.114,-76.8c-22.055,-12.724 -49.251,-12.724 -71.306,0c-44.411,25.623 -88.821,51.245 -133.232,76.868Z" style="fill:url(#_Linear2);fill-rule:nonzero;"/>
                </g>
            </g>
            <g>
                <g transform="matrix(1,0,0,1,497.494,220.015)">
                    <path d="M105.2,17.68l0,8.49l-64.2,0l0,67.39l64.2,0l0,9.63l-64.2,0l0,76.45l-9.38,0l0,-162l73.58,0.04Z" style="fill:url(#_Linear3);fill-rule:nonzero;"/>
                </g>
                <g transform="matrix(1,0,0,1,497.494,220.015)">
                    <rect x="134.58" y="17.68" width="9.42" height="162" style="fill:url(#_Linear4);fill-rule:nonzero;"/>
                </g>
                <g transform="matrix(1,0,0,1,497.494,220.015)">
                    <path d="M226.91,70.94c16,0 29.64,5.44 40.92,16.32c11.28,10.88 16.917,24.023 16.91,39.43c0,15.333 -5.637,28.44 -16.91,39.32c-11.273,10.88 -24.913,16.32 -40.92,16.32c-15.94,-0.007 -29.577,-5.45 -40.91,-16.33c-11.333,-10.88 -17,-23.987 -17,-39.32c0,-15.407 5.667,-28.55 17,-39.43c11.333,-10.88 24.97,-16.317 40.91,-16.31Zm-33.81,23.21c-9.333,8.987 -14,19.83 -14,32.53c0,12.7 4.667,23.527 14,32.48c18.877,17.801 48.743,17.801 67.62,0c9.333,-8.953 14,-19.78 14,-32.48c0,-12.7 -4.667,-23.543 -14,-32.53c-18.849,-17.865 -48.771,-17.865 -67.62,0Z" style="fill:url(#_Linear5);fill-rule:nonzero;"/>
                </g>
                <g transform="matrix(1,0,0,1,497.494,220.015)">
                    <path d="M360,153.27l0,-73.27l9.42,-0l0,71c-0.145,5.668 2.151,11.135 6.3,15c8.361,7.928 21.639,7.928 30,0c3.756,-3.511 5.984,-8.363 6.2,-13.5l-0.11,0l0,-72.5l9.42,0l0,72.36c-0.186,7.55 -3.411,14.715 -8.94,19.86c-12.025,11.551 -31.285,11.551 -43.31,0c-1.551,-1.483 -2.958,-3.11 -4.2,-4.86c-1.262,1.767 -2.707,3.396 -4.31,4.86c-12.025,11.551 -31.285,11.551 -43.31,0c-5.53,-5.144 -8.756,-12.309 -8.94,-19.86l0,-72.36l9.42,-0l0,72.49l-0.11,0c0.227,5.162 2.507,10.024 6.33,13.5c3.986,3.938 9.398,6.103 15,6c5.619,0.081 11.045,-2.079 15.07,-6c3.517,-3.349 5.679,-7.879 6.07,-12.72Z" style="fill:url(#_Linear6);fill-rule:nonzero;"/>
                </g>
                <g transform="matrix(1,0,0,1,497.494,220.015)">
                    <path d="M105.2,17.68l0,8.49l-64.2,0l0,67.39l64.2,0l0,9.63l-64.2,0l0,76.45l-9.38,0l0,-162l73.58,0.04Z" style="fill:url(#_Linear7);fill-rule:nonzero;"/>
                </g>
                <g transform="matrix(1,0,0,1,497.494,220.015)">
                    <rect x="134.58" y="17.68" width="9.42" height="162" style="fill:url(#_Linear8);fill-rule:nonzero;"/>
                </g>
                <g transform="matrix(1,0,0,1,497.494,220.015)">
                    <path d="M226.91,70.94c16,0 29.64,5.44 40.92,16.32c11.28,10.88 16.917,24.023 16.91,39.43c0,15.333 -5.637,28.44 -16.91,39.32c-11.273,10.88 -24.913,16.32 -40.92,16.32c-15.94,-0.007 -29.577,-5.45 -40.91,-16.33c-11.333,-10.88 -17,-23.987 -17,-39.32c0,-15.407 5.667,-28.55 17,-39.43c11.333,-10.88 24.97,-16.317 40.91,-16.31Zm-33.81,23.21c-9.333,8.987 -14,19.83 -14,32.53c0,12.7 4.667,23.527 14,32.48c18.877,17.801 48.743,17.801 67.62,0c9.333,-8.953 14,-19.78 14,-32.48c0,-12.7 -4.667,-23.543 -14,-32.53c-18.849,-17.865 -48.771,-17.865 -67.62,0Z" style="fill:url(#_Linear9);fill-rule:nonzero;"/>
                </g>
                <g transform="matrix(1,0,0,1,497.494,220.015)">
                    <path d="M360,153.27l0,-73.27l9.42,-0l0,71c-0.145,5.668 2.151,11.135 6.3,15c8.361,7.928 21.639,7.928 30,0c3.756,-3.511 5.984,-8.363 6.2,-13.5l-0.11,0l0,-72.5l9.42,0l0,72.36c-0.186,7.55 -3.411,14.715 -8.94,19.86c-12.025,11.551 -31.285,11.551 -43.31,0c-1.551,-1.483 -2.958,-3.11 -4.2,-4.86c-1.262,1.767 -2.707,3.396 -4.31,4.86c-12.025,11.551 -31.285,11.551 -43.31,0c-5.53,-5.144 -8.756,-12.309 -8.94,-19.86l0,-72.36l9.42,-0l0,72.49l-0.11,0c0.227,5.162 2.507,10.024 6.33,13.5c3.986,3.938 9.398,6.103 15,6c5.619,0.081 11.045,-2.079 15.07,-6c3.517,-3.349 5.679,-7.879 6.07,-12.72Z" style="fill:url(#_Linear10);fill-rule:nonzero;"/>
                </g>
            </g>
        </g>
    </g>
    <defs>
        <linearGradient id="_Linear1" x1="0" y1="0" x2="1" y2="0.00271143" gradientUnits="userSpaceOnUse" gradientTransform="matrix(138.89,-240.56,240.56,138.89,186.33,376.33)"><stop offset="0" style="stop-color:rgb(255,147,0);stop-opacity:1"/><stop offset="1" style="stop-color:rgb(216,70,98);stop-opacity:1"/></linearGradient>
        <linearGradient id="_Linear2" x1="0" y1="0" x2="1" y2="0.00271139" gradientUnits="userSpaceOnUse" gradientTransform="matrix(207,-358.54,358.54,207,152.5,435.27)"><stop offset="0" style="stop-color:rgb(0,181,112);stop-opacity:1"/><stop offset="1" style="stop-color:rgb(0,172,228);stop-opacity:1"/></linearGradient>
        <linearGradient id="_Linear3" x1="0" y1="0" x2="1" y2="0" gradientUnits="userSpaceOnUse" gradientTransform="matrix(73.58,0,0,73.58,31.62,98.66)"><stop offset="0" style="stop-color:rgb(255,147,0);stop-opacity:1"/><stop offset="1" style="stop-color:rgb(216,70,98);stop-opacity:1"/></linearGradient>
        <linearGradient id="_Linear4" x1="0" y1="0" x2="1" y2="0" gradientUnits="userSpaceOnUse" gradientTransform="matrix(88.7364,0,0,88.7364,1402.7,16000.6)"><stop offset="0" style="stop-color:rgb(255,147,0);stop-opacity:1"/><stop offset="1" style="stop-color:rgb(216,70,98);stop-opacity:1"/></linearGradient>
        <linearGradient id="_Linear5" x1="0" y1="0" x2="1" y2="0" gradientUnits="userSpaceOnUse" gradientTransform="matrix(13386.5,0,0,13386.5,19738.3,14176.3)"><stop offset="0" style="stop-color:rgb(255,147,0);stop-opacity:1"/><stop offset="1" style="stop-color:rgb(216,70,98);stop-opacity:1"/></linearGradient>
        <linearGradient id="_Linear6" x1="0" y1="0" x2="1" y2="0" gradientUnits="userSpaceOnUse" gradientTransform="matrix(12770.1,0,0,12770.1,35143.6,13239.2)"><stop offset="0" style="stop-color:rgb(255,147,0);stop-opacity:1"/><stop offset="1" style="stop-color:rgb(216,70,98);stop-opacity:1"/></linearGradient>
        <linearGradient id="_Linear7" x1="0" y1="0" x2="1" y2="0" gradientUnits="userSpaceOnUse" gradientTransform="matrix(389.63,0,0,389.63,31.63,100)"><stop offset="0" style="stop-color:rgb(255,147,0);stop-opacity:1"/><stop offset="1" style="stop-color:rgb(222,100,123);stop-opacity:1"/></linearGradient>
        <linearGradient id="_Linear8" x1="0" y1="0" x2="1" y2="0" gradientUnits="userSpaceOnUse" gradientTransform="matrix(389.63,0,0,389.63,31.63,100)"><stop offset="0" style="stop-color:rgb(255,147,0);stop-opacity:1"/><stop offset="1" style="stop-color:rgb(222,100,123);stop-opacity:1"/></linearGradient>
        <linearGradient id="_Linear9" x1="0" y1="0" x2="1" y2="0" gradientUnits="userSpaceOnUse" gradientTransform="matrix(389.63,0,0,389.63,31.63,100)"><stop offset="0" style="stop-color:rgb(255,147,0);stop-opacity:1"/><stop offset="1" style="stop-color:rgb(222,100,123);stop-opacity:1"/></linearGradient>
        <linearGradient id="_Linear10" x1="0" y1="0" x2="1" y2="0" gradientUnits="userSpaceOnUse" gradientTransform="matrix(389.63,0,0,389.63,31.63,100)"><stop offset="0" style="stop-color:rgb(255,147,0);stop-opacity:1"/><stop offset="1" style="stop-color:rgb(222,100,123);stop-opacity:1"/></linearGradient>
    </defs>
</svg>
