<?xml version="1.0" encoding="UTF-8" standalone="no"?>
<!DOCTYPE svg PUBLIC "-//W3C//DTD SVG 1.1//EN" "http://www.w3.org/Graphics/SVG/1.1/DTD/svg11.dtd">
<svg width="100%" height="100%" viewBox="0 0 510 510" version="1.1" xmlns="http://www.w3.org/2000/svg" xmlns:xlink="http://www.w3.org/1999/xlink" xml:space="preserve" xmlns:serif="http://www.serif.com/" style="fill-rule:evenodd;clip-rule:evenodd;stroke-linejoin:round;stroke-miterlimit:2;">
    <g id="Instagram-Outlined-White" serif:id="Instagram Outlined White" transform="matrix(1.0644,0,0,1.06454,-26.002,-26.0693)">
        <g transform="matrix(0.945673,0,0,0.945555,22.8525,22.8046)">
            <path d="M134.221,1.873c-45.361,0.118 -89.672,25.446 -113.3,64.405c-12.275,20.238 -18.959,43.733 -19.097,67.576c-0.21,80.819 -0.21,161.64 -0,242.454c0.258,44.553 24.912,88.293 63.032,112.047c20.545,12.802 44.401,19.795 68.93,19.937c80.81,0.208 161.62,0.208 242.424,0c44.534,-0.258 88.251,-24.866 112.033,-63.039c12.801,-20.548 19.792,-44.408 19.935,-68.94c0.207,-80.819 0.207,-161.64 -0,-242.454c-0.263,-45.199 -25.469,-89.27 -64.395,-112.885c-20.236,-12.276 -43.728,-18.961 -67.568,-19.1c-80.665,-0.209 -161.332,-0.001 -241.994,-0.001Zm241.973,14.912c-80.795,-0.208 -161.591,-0.208 -242.387,0c-21.179,0.123 -41.863,5.995 -59.77,16.785c-34.677,20.894 -57.073,60.249 -57.305,100.299c-0.208,80.811 -0.208,161.618 0,242.423c0.145,25.063 8.468,49.581 23.286,69.461c21.677,29.082 57.221,47.418 93.784,47.629c80.801,0.209 161.597,0.209 242.392,-0c36.277,-0.21 72.093,-18.519 93.79,-47.629c14.873,-19.954 23.143,-44.705 23.285,-69.456c0.209,-80.81 0.209,-161.617 0,-242.422c-0.209,-36.282 -18.516,-72.101 -47.622,-93.801c-19.951,-14.875 -44.702,-23.146 -69.447,-23.289l-0.006,0Z" style="fill:rgb(177,185,204);"/>
        </g>
        <g transform="matrix(0.945673,0,0,0.945555,22.8525,22.8046)">
            <path d="M254.607,132.597c-46.163,0.222 -90.87,28.712 -110.737,71.331c-17.908,38.413 -13.918,86.123 11.16,121.507c26.798,37.809 75.837,58.764 122.252,50.074c54.828,-10.266 100.232,-60.735 100.191,-120.414c-0.032,-46.186 -28.711,-91.346 -71.704,-111.265c-15.96,-7.394 -33.325,-11.262 -51.162,-11.233Zm0.737,14.959c-15.561,-0.025 -31.042,3.348 -45.104,9.853c-42.441,19.633 -67.781,67.02 -61.887,111.698c6.806,51.589 52.25,91.105 101.486,93.478c2.3,0.111 5.54,0.074 5.54,0.074c20.443,-0.12 40.869,-6.253 58.01,-17.44c38.648,-25.223 57.161,-74.721 45.49,-117.895c-12.538,-46.379 -57.007,-79.542 -103.53,-79.768l-0.005,0Z" style="fill:rgb(177,185,204);"/>
        </g>
        <g transform="matrix(0.945673,0,0,0.945555,22.8525,22.8046)">
            <path d="M399.651,91.997c-10.365,0.104 -19.634,10.137 -18.33,20.807c1.082,8.848 9.366,16.306 18.329,16.364c10.056,0.064 19.31,-9.37 18.668,-19.734c-0.568,-9.167 -8.64,-17.201 -18.229,-17.433c-0.146,-0.003 -0.292,-0.005 -0.438,-0.004Z" style="fill:rgb(177,185,204);fill-rule:nonzero;"/>
        </g>
    </g>
</svg>
