<?xml version="1.0" encoding="UTF-8" standalone="no"?>
<!DOCTYPE svg PUBLIC "-//W3C//DTD SVG 1.1//EN" "http://www.w3.org/Graphics/SVG/1.1/DTD/svg11.dtd">
<svg width="100%" height="100%" viewBox="0 0 510 510" version="1.1" xmlns="http://www.w3.org/2000/svg" xmlns:xlink="http://www.w3.org/1999/xlink" xml:space="preserve" xmlns:serif="http://www.serif.com/" style="fill-rule:evenodd;clip-rule:evenodd;stroke-linejoin:round;stroke-miterlimit:2;">
    <g transform="matrix(1,0,0,1,-7.54704,1.02852)">
        <g transform="matrix(4.51515,0,0,4.5169,-26.529,-35.0687)">
            <path d="M100.83,43.69c-6.676,-2.033 -13.856,-1.68 -20.3,1c-2.954,1.418 -5.681,3.268 -8.09,5.49c-0.14,-1.74 -0.35,-3.43 -0.35,-4.59c-0.011,-0.819 -0.681,-1.489 -1.5,-1.5l-23.59,0c-0.819,0.011 -1.489,0.681 -1.5,1.5c1,23.57 0.12,47.34 0,70.92c0.011,0.819 0.681,1.489 1.5,1.5l23.6,0c0.819,-0.011 1.489,-0.681 1.5,-1.5c0,-12.94 -0.09,-25.89 0,-38.83c0,-5.55 1.91,-10.94 7.61,-13c8.77,-3.11 13.66,4 14.15,11.76c0.39,6.15 0.06,12.41 0.06,18.57l0,21.46c0.011,0.819 0.681,1.489 1.5,1.5l23.58,0c0.819,-0.011 1.489,-0.681 1.5,-1.5l0,-40.58c-0.18,-13.74 -5.31,-27.99 -19.67,-32.2Zm-29.38,24.13c-3.86,6.05 -2.35,15.73 -2.35,22.6l0,24.64l-20.57,-0c0.14,-22.6 0.93,-45.34 -0,-67.92l20.57,-0l-0,6.99c-0,0.65 -0.34,1.62 -0,1c-0.131,0.228 -0.199,0.487 -0.199,0.75c-0,0.824 0.675,1.504 1.499,1.51l0.15,-0c0.794,0.013 1.472,-0.598 1.54,-1.39c0.071,-0.19 0.131,-0.383 0.18,-0.58c0.71,-1.32 3.33,-3.66 4,-4.28c2.072,-1.922 4.52,-3.393 7.19,-4.32c5.885,-1.906 12.241,-1.8 18.06,0.3c12.07,4.4 15.83,17.07 16,28.82l-0,39.17l-20.6,-0l-0,-21c-0,-7.54 1.21,-16.82 -1.2,-24.1c-3.66,-11.01 -18.24,-11.65 -24.27,-2.19Z" style="fill:rgb(177,185,204);fill-rule:nonzero;"/>
        </g>
        <g transform="matrix(4.51515,0,0,4.5169,-26.529,-35.0687)">
            <path d="M22.73,10c-0.242,-0.038 -0.488,-0.038 -0.73,0c-8,0.48 -14.79,5.74 -14.44,14.35c0.33,7.92 7,13.14 14.66,13.13c7.43,0 14.17,-4.84 14.79,-12.57c0.66,-8.78 -6.15,-14.43 -14.28,-14.91Zm-0.54,24.48c-5.42,0 -10.47,-3.11 -11.51,-8.68c-1.43,-7.63 4.63,-12.54 11.66,-12.83c15.05,0.6 15.03,21.46 -0.15,21.49l0,0.02Z" style="fill:rgb(177,185,204);fill-rule:nonzero;"/>
        </g>
        <g transform="matrix(4.51515,0,0,4.5169,-26.529,-35.0687)">
            <path d="M34,44.13l-23.6,0c-0.819,0.011 -1.489,0.681 -1.5,1.5l0,70.92c-0.008,0.374 0.137,0.735 0.4,1l0,0.05c0.264,0.267 0.625,0.415 1,0.41l23.7,0c0.819,-0.011 1.489,-0.681 1.5,-1.5l0,-70.88c-0.011,-0.819 -0.681,-1.489 -1.5,-1.5Zm-1.5,3l0,67.92l-20.6,0l0,-67.92l20.6,-0Z" style="fill:rgb(177,185,204);fill-rule:nonzero;"/>
        </g>
    </g>
</svg>
