<?xml version="1.0" encoding="UTF-8" standalone="no"?>
<!DOCTYPE svg PUBLIC "-//W3C//DTD SVG 1.1//EN" "http://www.w3.org/Graphics/SVG/1.1/DTD/svg11.dtd">
<svg width="100%" height="100%" viewBox="0 0 334 334" version="1.1" xmlns="http://www.w3.org/2000/svg" xmlns:xlink="http://www.w3.org/1999/xlink" xml:space="preserve" xmlns:serif="http://www.serif.com/" style="fill-rule:evenodd;clip-rule:evenodd;stroke-linejoin:round;stroke-miterlimit:2;">
    <g id="postman" transform="matrix(1,0,0,1,-0.0276108,-0.00747978)">
        <path d="M186.7,9.3c-87,-11.2 -166.6,50.3 -177.7,137.3c-11.1,87 50.3,166.6 137.3,177.7c87,11.2 166.6,-50.3 177.7,-137.3l0,-0.2c11.1,-87 -50.4,-166.4 -137.3,-177.5Z" style="fill:white;fill-rule:nonzero;"/>
        <path d="M261.8,83.7c-0.9,0.4 -1.4,1.5 -1,2.4c0,0.1 0.1,0.1 0.1,0.2c1,2 0.8,4.5 -0.7,6.2c-0.7,0.7 -0.8,1.9 -0.1,2.6l0.1,0.1c0.4,0.1 0.9,0.1 1.3,0c0.5,0 1.1,-0.3 1.4,-0.7c2.5,-2.9 3,-7 1.2,-10.4c-0.5,-0.7 -1.5,-0.9 -2.3,-0.4Z" style="fill:rgb(255,108,55);fill-rule:nonzero;"/>
        <path d="M187.7,1.4c-91.2,-11.8 -174.6,52.7 -186.3,143.9c-11.7,91.2 52.7,174.7 143.9,186.4c91.2,11.7 174.6,-52.7 186.4,-143.9c11.7,-91.2 -52.7,-174.7 -144,-186.4c0.1,-0 0.1,-0 -0,-0Zm34.3,103.8c-3.1,0.1 -6,1.3 -8.2,3.5l-61.8,61.8l-13.2,-13.2c60.8,-60.7 71.9,-61.3 83.2,-52.1Zm-67.5,67.5l61.6,-61.2c3.4,-3.3 8.8,-3.3 12.2,-0c1.7,1.7 2.6,4 2.5,6.3c-0.1,2.4 -1.1,4.6 -2.9,6.2l-65.1,57.4l-8.3,-8.7Zm4.6,9.3l-15.3,3.9c-0.3,0.2 -0.6,0.2 -0.9,-0c-0.2,-0.3 -0.2,-0.7 -0,-1l9.3,-9.3l6.9,6.4Zm-39,-6.4l16.3,-16.3l12.3,12.6l-27.9,6c-0.6,0.1 -1.2,-0.3 -1.3,-0.9c-0.1,-0.4 -0,-0.7 0.3,-1l0.3,-0.4Zm-50.5,84.7c-0.4,-0.1 -0.8,-0.4 -0.9,-0.7c-0.1,-0.4 -0.1,-0.8 -0,-1.1l13.1,-13.2l17,16.9l-29.2,-1.9Zm33.6,-17.5c-1.3,0.7 -2,2.1 -1.7,3.5l2.8,12c0.2,0.8 -0.2,1.6 -0.8,2c-0.6,0.5 -1.5,0.5 -2,0l-17,-17.5l52.2,-52.3l25.3,-5.4l12.1,12.1c-21.6,18 -45.4,33.3 -70.8,45.4l-0,0.2l-0.1,0Zm73.4,-47.6l-11.6,-11.6l65.1,-57.3c0.6,-0.5 1.2,-1.1 1.7,-1.8c-2.1,18.6 -28.3,45 -55.2,70.7Zm50.8,-89.7c-9.7,-10.1 -9.3,-26.1 0.8,-35.8c9.2,-8.8 23.4,-9.4 33.3,-1.4l-22.4,22.3c-0.6,0.7 -0.6,1.7 -0,2.4l17.4,17.3c-9.8,4.8 -21.6,2.8 -29.2,-5l0.1,0.2Zm35.7,0c-1.2,1.1 -2.4,2.2 -3.8,3.1l-16.7,-16.7l21.3,-21.3c9.2,9.9 8.9,25.3 -0.8,34.9Z" style="fill:rgb(255,108,55);fill-rule:nonzero;"/>
    </g>
</svg>
