<?xml version="1.0" encoding="UTF-8" standalone="no"?>
<!DOCTYPE svg PUBLIC "-//W3C//DTD SVG 1.1//EN" "http://www.w3.org/Graphics/SVG/1.1/DTD/svg11.dtd">
<svg width="100%" height="100%" viewBox="0 0 270 270" version="1.1" xmlns="http://www.w3.org/2000/svg" xmlns:xlink="http://www.w3.org/1999/xlink" xml:space="preserve" xmlns:serif="http://www.serif.com/" style="fill-rule:evenodd;clip-rule:evenodd;stroke-linejoin:round;stroke-miterlimit:2;">
    <g transform="matrix(2.1987,0,0,2.1987,-161.824,-161.824)">
        <g>
            <path d="M99.4,151.2c0,7.1 -5.8,12.9 -12.9,12.9c-7.1,-0 -12.9,-5.8 -12.9,-12.9c0,-7.1 5.8,-12.9 12.9,-12.9l12.9,-0l0,12.9Z" style="fill:rgb(224,30,90);fill-rule:nonzero;"/>
            <path d="M105.9,151.2c0,-7.1 5.8,-12.9 12.9,-12.9c7.1,-0 12.9,5.8 12.9,12.9l0,32.3c0,7.1 -5.8,12.9 -12.9,12.9c-7.1,0 -12.9,-5.8 -12.9,-12.9l0,-32.3Z" style="fill:rgb(224,30,90);fill-rule:nonzero;"/>
        </g>
        <g>
            <path d="M118.8,99.4c-7.1,0 -12.9,-5.8 -12.9,-12.9c0,-7.1 5.8,-12.9 12.9,-12.9c7.1,0 12.9,5.8 12.9,12.9l0,12.9l-12.9,0Z" style="fill:rgb(54,197,240);fill-rule:nonzero;"/>
            <path d="M118.8,105.9c7.1,0 12.9,5.8 12.9,12.9c0,7.1 -5.8,12.9 -12.9,12.9l-32.3,0c-7.1,0 -12.9,-5.8 -12.9,-12.9c0,-7.1 5.8,-12.9 12.9,-12.9l32.3,0Z" style="fill:rgb(54,197,240);fill-rule:nonzero;"/>
        </g>
        <g>
            <path d="M170.6,118.8c0,-7.1 5.8,-12.9 12.9,-12.9c7.1,0 12.9,5.8 12.9,12.9c0,7.1 -5.8,12.9 -12.9,12.9l-12.9,0l0,-12.9Z" style="fill:rgb(46,182,125);fill-rule:nonzero;"/>
            <path d="M164.1,118.8c0,7.1 -5.8,12.9 -12.9,12.9c-7.1,0 -12.9,-5.8 -12.9,-12.9l0,-32.3c0,-7.1 5.8,-12.9 12.9,-12.9c7.1,0 12.9,5.8 12.9,12.9l0,32.3Z" style="fill:rgb(46,182,125);fill-rule:nonzero;"/>
        </g>
        <g>
            <path d="M151.2,170.6c7.1,0 12.9,5.8 12.9,12.9c-0,7.1 -5.8,12.9 -12.9,12.9c-7.1,0 -12.9,-5.8 -12.9,-12.9l-0,-12.9l12.9,0Z" style="fill:rgb(236,178,46);fill-rule:nonzero;"/>
            <path d="M151.2,164.1c-7.1,0 -12.9,-5.8 -12.9,-12.9c-0,-7.1 5.8,-12.9 12.9,-12.9l32.3,0c7.1,0 12.9,5.8 12.9,12.9c0,7.1 -5.8,12.9 -12.9,12.9l-32.3,0Z" style="fill:rgb(236,178,46);fill-rule:nonzero;"/>
        </g>
    </g>
</svg>
