<?xml version="1.0" encoding="UTF-8" standalone="no"?>
<!DOCTYPE svg PUBLIC "-//W3C//DTD SVG 1.1//EN" "http://www.w3.org/Graphics/SVG/1.1/DTD/svg11.dtd">
<svg width="100%" height="100%" viewBox="0 0 101 101" version="1.1" xmlns="http://www.w3.org/2000/svg" xmlns:xlink="http://www.w3.org/1999/xlink" xml:space="preserve" xmlns:serif="http://www.serif.com/" style="fill-rule:evenodd;clip-rule:evenodd;stroke-linejoin:round;stroke-miterlimit:2;">
    <g transform="matrix(1,0,0,1,-0.301,0)">
        <g>
            <g>
                <g>
                    <g>
                        <path d="M50.328,97.669c-26.27,0 -47.643,-21.371 -47.643,-47.642c0,-26.271 21.373,-47.642 47.643,-47.642c26.27,0 47.643,21.373 47.643,47.643c0,26.27 -21.373,47.641 -47.643,47.641Z" style="fill:rgb(133,234,45);fill-rule:nonzero;"/>
                    </g>
                    <g>
                        <g>
                            <path d="M50.328,4.769c24.996,0 45.258,20.262 45.258,45.258c0,24.995 -20.262,45.258 -45.258,45.258c-24.995,0 -45.258,-20.263 -45.258,-45.258c-0,-24.995 20.263,-45.258 45.258,-45.258m-0,-4.769c-27.585,0 -50.027,22.442 -50.027,50.027c-0,27.585 22.442,50.027 50.027,50.027c27.585,0 50.028,-22.442 50.028,-50.027c-0,-27.585 -22.443,-50.027 -50.028,-50.027Z" style="fill:rgb(23,54,71);fill-rule:nonzero;"/>
                        </g>
                    </g>
                </g>
            </g>
        </g>
        <path d="M31.802,33.854c-0.154,1.712 0.057,3.482 -0.057,5.213c-0.135,1.732 -0.347,3.444 -0.693,5.156c-0.481,2.443 -2.001,4.29 -4.097,5.829c4.079,2.655 4.54,6.771 4.809,10.946c0.135,2.251 0.077,4.521 0.308,6.752c0.173,1.731 0.846,2.174 2.636,2.231c0.731,0.019 1.48,0 2.328,0l0,5.348c-5.29,0.904 -9.657,-0.596 -10.735,-5.078c-0.347,-1.635 -0.578,-3.309 -0.654,-5.002c-0.116,-1.789 0.076,-3.578 -0.058,-5.367c-0.385,-4.906 -1.02,-6.56 -5.713,-6.791l0,-6.098c0.346,-0.077 0.673,-0.135 1.019,-0.173c2.578,-0.135 3.674,-0.924 4.232,-3.463c0.27,-1.423 0.424,-2.866 0.481,-4.328c0.193,-2.789 0.116,-5.636 0.596,-8.406c0.673,-3.982 3.136,-5.906 7.234,-6.137c1.154,-0.058 2.328,0 3.655,0l0,5.464c-0.558,0.039 -1.039,0.115 -1.539,0.115c-3.328,-0.116 -3.502,1.019 -3.752,3.789Zm6.406,12.658l-0.077,0c-1.924,-0.096 -3.578,1.404 -3.675,3.328c-0.096,1.943 1.404,3.598 3.328,3.693l0.231,0c1.905,0.116 3.539,-1.347 3.655,-3.251l-0,-0.192c0.039,-1.943 -1.519,-3.539 -3.462,-3.578Zm12.062,0c-1.866,-0.058 -3.425,1.404 -3.482,3.251c-0,0.116 -0,0.212 0.02,0.327c-0,2.097 1.423,3.444 3.578,3.444c2.116,0 3.444,-1.385 3.444,-3.559c-0.02,-2.097 -1.425,-3.482 -3.56,-3.463Zm12.351,0c-1.962,-0.039 -3.598,1.52 -3.655,3.482c-0,1.962 1.577,3.539 3.539,3.539l0.039,0c1.77,0.308 3.559,-1.404 3.675,-3.462c0.095,-1.905 -1.636,-3.559 -3.598,-3.559Zm16.948,0.288c-2.232,-0.096 -3.348,-0.846 -3.905,-2.963c-0.347,-1.346 -0.558,-2.751 -0.635,-4.136c-0.154,-2.578 -0.135,-5.175 -0.308,-7.753c-0.404,-6.117 -4.828,-8.252 -11.254,-7.195l-0,5.31c1.019,0 1.808,0 2.597,0.019c1.366,0.019 2.405,0.539 2.539,2.059c0.135,1.385 0.135,2.789 0.27,4.194c0.27,2.79 0.423,5.617 0.904,8.368c0.424,2.27 1.982,3.963 3.924,5.348c-3.404,2.289 -4.405,5.559 -4.578,9.234c-0.096,2.52 -0.154,5.059 -0.288,7.599c-0.116,2.308 -0.923,3.058 -3.251,3.116c-0.654,0.019 -1.289,0.077 -2.02,0.116l-0,5.444c1.366,0 2.616,0.077 3.866,0c3.886,-0.231 6.233,-2.116 7.003,-5.887c0.327,-2.078 0.519,-4.174 0.577,-6.271c0.134,-1.924 0.116,-3.867 0.308,-5.771c0.288,-2.982 1.654,-4.213 4.636,-4.405c0.289,-0.039 0.558,-0.096 0.828,-0.192l-0,-6.099c-0.501,-0.058 -0.848,-0.115 -1.213,-0.135Z" style="fill:rgb(23,54,71);fill-rule:nonzero;"/>
    </g>
</svg>
