<?xml version="1.0" encoding="UTF-8" standalone="no"?>
<!DOCTYPE svg PUBLIC "-//W3C//DTD SVG 1.1//EN" "http://www.w3.org/Graphics/SVG/1.1/DTD/svg11.dtd">
<svg width="100%" height="100%" viewBox="0 0 510 510" version="1.1" xmlns="http://www.w3.org/2000/svg" xmlns:xlink="http://www.w3.org/1999/xlink" xml:space="preserve" xmlns:serif="http://www.serif.com/" style="fill-rule:evenodd;clip-rule:evenodd;stroke-linejoin:round;stroke-miterlimit:2;">
    <g id="bd5a918a-a5f9-4839-abed-7b61d498cab9" transform="matrix(4.51294,0,0,4.51492,-34.1048,-34.0437)">
        <path d="M118.24,28.59c-2.161,0.911 -4.387,1.66 -6.66,2.24c2.608,-2.696 4.598,-5.927 5.83,-9.47c0.46,-1.28 -1.13,-2.3 -2.2,-1.69c-3.36,1.91 -9.61,5.94 -13.58,4.65c-2.3,-0.74 -4.56,-3.51 -6.94,-4.53c-5.857,-2.507 -12.474,-2.601 -18.4,-0.26c-10.62,4.21 -16.13,14.9 -14.87,25.85c-17.052,-1.505 -32.806,-9.796 -43.7,-23c-0.283,-0.28 -0.665,-0.437 -1.063,-0.437c-0.531,-0 -1.025,0.28 -1.297,0.737c-5.17,9.246 -3.762,20.85 3.47,28.59c-1.61,-0.446 -3.168,-1.059 -4.65,-1.83c-0.226,-0.126 -0.481,-0.192 -0.74,-0.192c-0.824,-0 -1.505,0.669 -1.52,1.492c-0.057,9.126 5.076,17.532 13.22,21.65c-1.146,-0.017 -2.289,-0.117 -3.42,-0.3c-1,-0.16 -2.27,0.66 -1.85,1.85c2.802,8.331 9.87,14.546 18.49,16.26c-8.725,5.545 -19.081,7.965 -29.36,6.86c-1.56,-0.15 -1.92,2.07 -0.76,2.8c10.604,6.64 22.84,10.219 35.35,10.34c21.18,-0.22 40.71,-9.5 53.1,-26.88c5.559,-7.821 9.412,-16.724 11.31,-26.13c0.85,-4.25 0.91,-8.42 1.3,-12.7c0.29,-3.24 2.19,-3.81 4.49,-6c2.417,-2.381 4.594,-4.993 6.5,-7.8c0.97,-1.44 -0.84,-2.61 -2.05,-2.1Zm-7.76,8.85c-1.33,1.2 -3.52,2 -4.19,3.74c-0.67,1.74 0,4.71 -0.08,6.65c-0.118,2.121 -0.348,4.234 -0.69,6.33c-1.477,8.962 -4.786,17.524 -9.72,25.15c-11.61,17.94 -31,27.67 -52.2,27.88c-9.891,-0.099 -19.628,-2.467 -28.46,-6.92c10.131,-0.207 19.939,-3.629 28,-9.77c0.45,-0.274 0.725,-0.764 0.725,-1.29c0,-0.819 -0.666,-1.497 -1.485,-1.51c-8.057,-0.288 -15.299,-5.09 -18.7,-12.4c2.766,0.186 5.545,-0.05 8.24,-0.7c0.635,-0.193 1.072,-0.782 1.072,-1.445c-0,-0.663 -0.437,-1.252 -1.072,-1.445c-9.028,-1.909 -15.867,-9.423 -16.92,-18.59c2.743,1.107 5.647,1.762 8.6,1.94c1.62,0.11 1.86,-2 0.76,-2.8c-8.355,-5.806 -11.457,-16.817 -7.36,-26.13c11.799,13.295 28.424,21.354 46.17,22.38c0.826,-0.012 1.498,-0.694 1.498,-1.52c0,-0.128 -0.016,-0.256 -0.048,-0.38c-2.53,-13.11 6.86,-25.72 20.54,-25.81c3.647,-0.005 7.232,0.943 10.4,2.75c1.86,1.05 3.74,3.73 5.68,4.32c1.94,0.59 5.57,-1.17 7.45,-1.85c1.4,-0.51 2.77,-1.09 4.11,-1.72c-1.823,3.189 -4.402,5.881 -7.51,7.84c-0.431,0.278 -0.692,0.757 -0.692,1.269c0,0.829 0.682,1.51 1.51,1.51c0.115,0 0.23,-0.013 0.342,-0.039c2.811,-0.396 5.584,-1.025 8.29,-1.88c-1.311,1.578 -2.731,3.062 -4.25,4.44l-0.01,0Z" style="fill:rgb(177,185,204);fill-rule:nonzero;"/>
    </g>
</svg>
